<svg width="19" height="18" viewBox="0 0 19 18" fill="none" xmlns="http://www.w3.org/2000/svg">
<path d="M9.29232 6.99992V4.49992H6.79232V2.83325H9.29232V0.333252H10.959V2.83325H13.459V4.49992H10.959V6.99992H9.29232ZM5.95898 17.8333C5.50065 17.8333 5.10829 17.6701 4.7819 17.3437C4.45551 17.0173 4.29232 16.6249 4.29232 16.1666C4.29232 15.7083 4.45551 15.3159 4.7819 14.9895C5.10829 14.6631 5.50065 14.4999 5.95898 14.4999C6.41732 14.4999 6.80968 14.6631 7.13607 14.9895C7.46246 15.3159 7.62565 15.7083 7.62565 16.1666C7.62565 16.6249 7.46246 17.0173 7.13607 17.3437C6.80968 17.6701 6.41732 17.8333 5.95898 17.8333ZM14.2923 17.8333C13.834 17.8333 13.4416 17.6701 13.1152 17.3437C12.7888 17.0173 12.6257 16.6249 12.6257 16.1666C12.6257 15.7083 12.7888 15.3159 13.1152 14.9895C13.4416 14.6631 13.834 14.4999 14.2923 14.4999C14.7507 14.4999 15.143 14.6631 15.4694 14.9895C15.7958 15.3159 15.959 15.7083 15.959 16.1666C15.959 16.6249 15.7958 17.0173 15.4694 17.3437C15.143 17.6701 14.7507 17.8333 14.2923 17.8333ZM0.958984 2.83325V1.16659H3.68815L7.22982 8.66659H13.0632L16.3132 2.83325H18.209L14.5423 9.45825C14.3895 9.73603 14.1847 9.95131 13.9277 10.1041C13.6708 10.2569 13.3895 10.3333 13.084 10.3333H6.87565L5.95898 11.9999H15.959V13.6666H5.95898C5.33398 13.6666 4.85829 13.3958 4.5319 12.8541C4.20551 12.3124 4.1951 11.7638 4.50065 11.2083L5.62565 9.16659L2.62565 2.83325H0.958984Z" fill="black"/>
</svg>
