<svg width="32" height="33" viewBox="0 0 32 33" fill="none" xmlns="http://www.w3.org/2000/svg">
<g clip-path="url(#clip0_877_4841)">
<path d="M3.65356 24.6749C3.58298 24.6924 3.5036 24.701 3.41543 24.7009C3.32725 24.7007 3.23907 24.7005 3.15089 24.7004C2.55129 24.6992 1.97834 24.5923 1.43205 24.3796C0.885755 24.1669 0.525013 23.7606 0.349822 23.1607C0.297223 23.0018 0.271112 22.8254 0.271488 22.6314C0.272412 22.1553 0.423152 21.7235 0.723707 21.3361C0.794389 21.2657 0.865015 21.2217 0.93559 21.2042C0.988565 21.1691 1.01495 21.2044 1.01475 21.3102C1.06597 22.1745 1.36458 22.7923 1.91057 23.1637C2.47415 23.5528 3.13511 23.748 3.89344 23.7495C4.61649 23.7509 5.35748 23.6024 6.11639 23.3041C6.89292 23.0058 7.58148 22.6015 8.1821 22.0913C8.9594 21.405 9.67517 20.6128 10.3294 19.7146C11.0013 18.8165 11.638 17.9095 12.2394 16.9936C12.4517 16.6413 12.6728 16.289 12.9027 15.9368C13.1327 15.5845 13.3626 15.241 13.5925 14.9064L7.00565 14.8936C6.97041 14.8936 6.95279 14.8759 6.95287 14.8407C6.95304 14.7525 7.01495 14.6468 7.13864 14.5236C7.28 14.3828 7.39477 14.3124 7.48296 14.3126L13.964 14.3252C14.7422 13.1804 15.5468 12.0621 16.3778 10.9703C17.2088 9.86085 18.0484 8.84842 18.8967 7.933C19.9393 6.84163 21.0256 5.97076 22.1556 5.32044C23.3032 4.65252 24.3356 4.293 25.2527 4.24187C25.7466 4.20755 26.1874 4.23487 26.5752 4.3238C26.9807 4.39512 27.3067 4.53684 27.5531 4.74895C27.7821 4.92573 27.9492 5.14653 28.0545 5.41123C28.1598 5.67598 28.2122 5.94943 28.2116 6.23163C28.2115 6.30215 28.2025 6.37268 28.1847 6.44317C28.1846 6.51374 28.1757 6.59306 28.1578 6.68121C28.1044 6.96327 27.9981 7.19235 27.8391 7.36839C27.7684 7.43879 27.6978 7.47391 27.6272 7.47378C27.5038 7.47357 27.4951 7.39417 27.6012 7.23566C27.7604 7.02433 27.8402 6.76876 27.8408 6.46898C27.8411 6.31026 27.8149 6.16912 27.7623 6.04556C27.6395 5.71024 27.4019 5.4629 27.0495 5.3035C26.7147 5.12647 26.3181 5.03756 25.8596 5.03666C24.872 5.03474 23.8308 5.38542 22.736 6.08874C21.9415 6.5986 21.1289 7.28481 20.2983 8.14736C19.4855 8.99229 18.6635 9.94303 17.8327 10.9995C17.0193 12.0561 16.2059 13.1656 15.3925 14.3279L19.2811 14.3355C19.4405 14.0183 19.5998 13.7012 19.7591 13.3841C19.9361 13.067 20.1131 12.7499 20.29 12.4328C20.9448 11.2525 21.6172 10.1251 22.307 9.05066C23.0146 7.95865 23.6426 6.97228 24.191 6.09155C24.244 6.00349 24.297 5.9595 24.3499 5.95958C24.4205 5.95971 24.4645 5.99508 24.482 6.06565C24.4995 6.13622 24.4817 6.19792 24.4288 6.25074C23.6151 7.48364 22.8983 8.78727 22.2784 10.1617C21.6762 11.5361 21.1267 12.9282 20.6302 14.3381L21.9264 14.3406C21.9617 14.3407 21.9793 14.3583 21.9793 14.3936C21.9791 14.4642 21.9083 14.5698 21.767 14.7106C21.6433 14.8515 21.5285 14.9218 21.4227 14.9216L20.4175 14.9197C20.2579 15.3779 20.0627 15.9947 19.8319 16.7703C19.6188 17.5282 19.4233 18.3214 19.2453 19.1499C19.085 19.9785 19.0042 20.7367 19.0028 21.4245C19.0016 22.0593 19.0976 22.5533 19.2909 22.9064C19.5019 23.2595 19.8278 23.4365 20.2687 23.4373C20.3216 23.4375 20.3745 23.4376 20.4274 23.4377C20.4803 23.4378 20.5332 23.4291 20.5862 23.4115C20.8861 23.3592 21.1862 23.1922 21.4865 22.9107C21.8045 22.6291 22.1138 22.2946 22.4144 21.9072C22.8387 21.3614 23.2278 20.7801 23.5817 20.1636C23.9356 19.547 24.2011 19.0713 24.3781 18.7366C24.4665 18.5957 24.5372 18.5253 24.5901 18.5254C24.6606 18.5256 24.6958 18.5873 24.6955 18.7108C24.6954 18.7813 24.6688 18.8695 24.6157 18.9752C24.368 19.4156 24.0494 19.9705 23.6602 20.6399C23.2885 21.2917 22.8729 21.8993 22.4133 22.4628C22.0775 22.8501 21.7241 23.1845 21.3532 23.4659C20.9823 23.7474 20.594 23.923 20.1882 23.9927C20.0824 24.0101 19.9766 24.0188 19.8708 24.0186C19.7825 24.036 19.6855 24.0447 19.5797 24.0444C19.0683 24.0435 18.6189 23.8927 18.2315 23.5921C17.844 23.3092 17.5805 22.8237 17.4407 22.1357C17.4058 21.9416 17.3798 21.7387 17.3625 21.5271C17.3453 21.3154 17.3369 21.1126 17.3373 20.9186C17.3392 19.8958 17.5176 18.8644 17.8723 17.8246C18.2447 16.7848 18.6257 15.8156 19.0155 14.9169L14.9416 14.909C14.6587 15.2965 14.3846 15.7015 14.1192 16.1243C13.8539 16.5294 13.5798 16.9345 13.2968 17.3396C12.784 18.0793 12.1652 18.8628 11.4405 19.6903C10.7335 20.5002 9.95605 21.2746 9.10813 22.0137C8.26022 22.7351 7.36844 23.3418 6.43281 23.8338C5.51479 24.3258 4.58837 24.6062 3.65356 24.6749Z" fill="#005770" stroke="#005770" stroke-width="0.7"/>
<path d="M8.12832 29.1977C7.87808 29.0157 7.70498 28.8077 7.60902 28.5736C7.53111 28.3422 7.50726 28.1183 7.53756 27.9019C7.57536 27.6315 7.66748 27.433 7.81382 27.3064C7.89856 27.2263 7.97826 27.1823 8.05288 27.1744C8.14304 27.187 8.16377 27.2359 8.11509 27.3209C8.01564 27.6379 8.09896 27.962 8.36512 28.2934C8.64676 28.6453 8.9165 28.8852 9.17433 29.0131C9.48623 29.1487 9.77739 29.2354 10.0478 29.2732C10.3183 29.311 10.5847 29.3116 10.8472 29.2747C11.1252 29.2585 11.3865 29.2307 11.6309 29.1913C12.3719 29.0192 13.1404 28.5845 13.9364 27.887C14.7325 27.1896 15.4883 26.3854 16.2039 25.4745C17.1377 24.3184 18.0773 22.9885 19.0229 21.4848C19.9711 19.963 20.9579 18.4927 21.9836 17.0737C20.7207 18.3492 19.4083 19.4524 18.0465 20.3832C16.7028 21.3165 15.3801 21.9679 14.0785 22.3373C13.5229 22.4985 12.9298 22.5994 12.2991 22.6398C11.684 22.7008 11.0699 22.6885 10.4569 22.6027C9.84399 22.517 9.26035 22.3527 8.70611 22.1097C8.16992 21.8693 7.70041 21.5463 7.2976 21.1407C6.78624 20.5912 6.46257 19.9485 6.3265 19.2126C6.193 18.4587 6.17922 17.7031 6.28512 16.9459C6.3431 16.5312 6.4269 16.1293 6.53647 15.7403C6.6666 15.3357 6.79289 14.9582 6.91548 14.6077C7.36783 13.4762 7.99797 12.3879 8.80587 11.3428C9.6138 10.2978 10.5481 9.33476 11.6088 8.45374C12.672 7.55467 13.8257 6.79699 15.07 6.18059C16.5122 5.46323 18 4.94526 19.5335 4.62668C21.085 4.31061 22.654 4.26354 24.2406 4.48545C24.6913 4.54849 25.1202 4.63605 25.5273 4.74814C25.9524 4.86274 26.3274 5.00713 26.6524 5.18121C27.2016 5.46025 27.5784 5.78865 27.7829 6.16651C27.9873 6.54436 28.0606 6.94065 28.0026 7.35529C27.9093 8.02238 27.5366 8.65035 26.8844 9.23928C26.1705 9.87467 25.3517 10.2748 24.4279 10.4397C23.5247 10.5891 22.7216 10.6146 22.0184 10.5163C21.8561 10.4936 21.7029 10.4722 21.5587 10.452C21.435 10.4163 21.3113 10.3807 21.1876 10.345C21.0099 10.3017 20.9285 10.226 20.9437 10.1178C20.9613 9.99162 21.0758 9.96171 21.2871 10.028C21.4108 10.0637 21.5435 10.1006 21.6852 10.1388C21.8294 10.159 21.9737 10.1792 22.1179 10.1994C22.785 10.2927 23.507 10.2558 24.284 10.0887C25.0816 9.9062 25.8308 9.47791 26.5316 8.80391C26.8936 8.45016 27.1074 8.03889 27.173 7.57011C27.2184 7.24559 27.1711 6.92653 27.0311 6.61284C26.9092 6.30168 26.6535 6.02694 26.2641 5.78865C25.6915 5.41446 24.9699 5.18488 24.0995 5.09988C22.9226 4.97201 21.7063 5.05926 20.4509 5.3616C19.216 5.64841 18.006 6.08574 16.8208 6.67364C15.6357 7.2615 14.5268 7.96115 13.4942 8.77259C12.4642 9.56597 11.5746 10.4066 10.8254 11.2944C10.4714 11.7228 10.0894 12.2852 9.67959 12.9815C9.29026 13.6623 8.92815 14.4113 8.5933 15.2284C8.27897 16.03 8.06632 16.8274 7.95539 17.6207C7.82679 18.5401 7.89233 19.3857 8.15204 20.1573C8.41175 20.9289 8.9837 21.5052 9.86788 21.8862C10.0921 21.9911 10.3846 22.0688 10.7452 22.1192C11.1959 22.1822 11.7018 22.1794 12.2628 22.1109C12.8394 22.0628 13.4453 21.9362 14.0806 21.731C15.1197 21.3984 16.1725 20.9023 17.239 20.2426C18.326 19.5675 19.3716 18.7947 20.3757 17.9241C21.3798 17.0536 22.2679 16.1576 23.0401 15.2362C23.4789 14.7278 23.7974 14.4874 23.9958 14.5152C24.6476 13.7975 25.3151 13.1648 25.9983 12.617C26.6996 12.0717 27.418 11.6668 28.1535 11.402C28.7708 11.1942 29.3589 11.1294 29.9178 11.2076C30.1701 11.2429 30.4097 11.304 30.6366 11.3909C30.7242 11.4215 30.7437 11.4794 30.695 11.5645C30.6489 11.6316 30.591 11.651 30.5214 11.6229C30.3667 11.5461 30.1992 11.4951 30.0189 11.4699C29.5862 11.4094 29.096 11.4971 28.5484 11.7329C28.0007 11.9688 27.4316 12.358 26.841 12.9003C25.9166 13.7269 25.0775 14.6665 24.3237 15.7191C23.5904 16.7562 22.8844 17.8614 22.2055 19.0348C21.5473 20.1927 20.8517 21.3546 20.1188 22.5204C19.4065 23.6707 18.6 24.7711 17.6995 25.8215C16.8886 26.7559 16.0028 27.5695 15.042 28.2623C14.0812 28.955 13.0399 29.4343 11.9182 29.7002C11.2724 29.8489 10.5529 29.8677 9.75964 29.7568C9.43511 29.7114 9.12339 29.6402 8.82447 29.5432C8.54355 29.4488 8.31153 29.3337 8.12832 29.1977Z" fill="#005770" stroke="#005770" stroke-width="0.7"/>
</g>
<defs>
<clipPath id="clip0_877_4841">
<rect width="32" height="32" fill="white" transform="translate(0 0.5)"/>
</clipPath>
</defs>
</svg>
