<svg width="32" height="32" viewBox="0 0 32 32" fill="none" xmlns="http://www.w3.org/2000/svg">
<path d="M26.667 7.99996C26.667 7.64634 26.5265 7.3072 26.2765 7.05715C26.0264 6.8071 25.6873 6.66663 25.3337 6.66663H6.66699C6.31337 6.66663 5.97423 6.8071 5.72418 7.05715C5.47413 7.3072 5.33366 7.64634 5.33366 7.99996C5.33366 8.35358 5.47413 8.69272 5.72418 8.94277C5.97423 9.19282 6.31337 9.33329 6.66699 9.33329H25.3337C25.6873 9.33329 26.0264 9.19282 26.2765 8.94277C26.5265 8.69272 26.667 8.35358 26.667 7.99996ZM26.667 24C26.667 23.6463 26.5265 23.3072 26.2765 23.0571C26.0264 22.8071 25.6873 22.6666 25.3337 22.6666H6.66699C6.31337 22.6666 5.97423 22.8071 5.72418 23.0571C5.47413 23.3072 5.33366 23.6463 5.33366 24C5.33366 24.3536 5.47413 24.6927 5.72418 24.9428C5.97423 25.1928 6.31337 25.3333 6.66699 25.3333H25.3337C25.6873 25.3333 26.0264 25.1928 26.2765 24.9428C26.5265 24.6927 26.667 24.3536 26.667 24ZM17.3337 14.6666C17.6873 14.6666 18.0264 14.8071 18.2765 15.0571C18.5265 15.3072 18.667 15.6463 18.667 16C18.667 16.3536 18.5265 16.6927 18.2765 16.9428C18.0264 17.1928 17.6873 17.3333 17.3337 17.3333H6.66699C6.31337 17.3333 5.97423 17.1928 5.72418 16.9428C5.47413 16.6927 5.33366 16.3536 5.33366 16C5.33366 15.6463 5.47413 15.3072 5.72418 15.0571C5.97423 14.8071 6.31337 14.6666 6.66699 14.6666H17.3337Z" fill="black"/>
</svg>
