<svg width="70" height="27" viewBox="0 0 70 27" fill="none" xmlns="http://www.w3.org/2000/svg">
<g clip-path="url(#clip0_1205_5215)">
<path d="M51.9915 26.8773C50.069 26.8773 48.2285 26.595 46.4701 26.0304C44.7117 25.4413 43.3168 24.6927 42.2852 23.7845L43.8677 20.0659C44.8524 20.8759 46.0716 21.5509 47.5252 22.0909C48.9788 22.6309 50.4676 22.9009 51.9915 22.9009C53.281 22.9009 54.3243 22.7536 55.1214 22.4591C55.9186 22.1645 56.5047 21.7718 56.8798 21.2809C57.255 20.7654 57.4425 20.1886 57.4425 19.5504C57.4425 18.765 57.1729 18.139 56.6337 17.6727C56.0945 17.1818 55.3911 16.8014 54.5236 16.5313C53.6796 16.2368 52.73 15.9668 51.675 15.7213C50.6434 15.4759 49.6001 15.1936 48.545 14.8745C47.5135 14.5309 46.564 14.1013 45.6964 13.5859C44.8524 13.0459 44.1608 12.3341 43.6215 11.4504C43.0823 10.5668 42.8127 9.43773 42.8127 8.06316C42.8127 6.66407 43.1644 5.38773 43.8677 4.23407C44.5946 3.05589 45.6848 2.12314 47.1383 1.43589C48.6154 0.724049 50.4793 0.368164 52.73 0.368164C54.2071 0.368164 55.6724 0.564552 57.126 0.957254C58.5796 1.34996 59.8457 1.91453 60.9241 2.65089L59.4823 6.36953C58.3804 5.68228 57.2433 5.17905 56.071 4.85998C54.8987 4.51632 53.7734 4.34453 52.6949 4.34453C51.4288 4.34453 50.3973 4.5041 49.6001 4.82316C48.8264 5.14223 48.252 5.55953 47.8769 6.07498C47.5252 6.59044 47.3493 7.17953 47.3493 7.84225C47.3493 8.62773 47.6073 9.26587 48.123 9.7568C48.6623 10.2231 49.3539 10.5913 50.1979 10.8613C51.0655 11.1314 52.0267 11.4013 53.0817 11.6713C54.1367 11.9168 55.1801 12.1991 56.2116 12.5182C57.2667 12.8372 58.2162 13.2545 59.0602 13.77C59.9278 14.2854 60.6194 14.985 61.1351 15.8686C61.6744 16.7523 61.944 17.8691 61.944 19.2191C61.944 20.5936 61.5806 21.87 60.8538 23.0482C60.1504 24.2018 59.0602 25.1345 57.5832 25.8463C56.1061 26.5336 54.2422 26.8773 51.9915 26.8773Z" fill="url(#paint0_linear_1205_5215)"/>
<path d="M38.2134 26.8773C36.2908 26.8773 34.5207 26.5582 32.903 25.92C31.3087 25.2573 29.9137 24.3368 28.718 23.1586C27.5223 21.9559 26.5962 20.5445 25.9398 18.9245C25.2833 17.3045 24.9551 15.5373 24.9551 13.6227C24.9551 11.7082 25.2833 9.94089 25.9398 8.32089C26.5962 6.70089 27.5223 5.3018 28.718 4.12362C29.9372 2.92092 31.3556 2.00046 32.9734 1.36226C34.5911 0.699528 36.3611 0.368164 38.2837 0.368164C40.3703 0.368164 42.2459 0.724049 43.9106 1.43589C45.5986 2.14773 47.017 3.19087 48.1659 4.56544L45.2821 7.51089C44.3208 6.5045 43.2775 5.76814 42.1522 5.3018C41.0502 4.81087 39.8311 4.56544 38.4947 4.56544C37.2052 4.56544 36.0095 4.78635 34.9076 5.22816C33.8056 5.66998 32.8561 6.29589 32.059 7.10589C31.2618 7.91589 30.6405 8.87316 30.1951 9.97771C29.7731 11.0823 29.5621 12.2973 29.5621 13.6227C29.5621 14.9236 29.7731 16.1263 30.1951 17.2309C30.6405 18.3354 31.2618 19.305 32.059 20.1395C32.8561 20.9495 33.7939 21.5754 34.8724 22.0173C35.9509 22.4591 37.1466 22.68 38.4595 22.68C39.6787 22.68 40.851 22.4836 41.9763 22.0909C43.1251 21.6736 44.2153 20.9863 45.2469 20.0291L47.8494 23.6004C46.5598 24.6805 45.0593 25.5027 43.3479 26.0673C41.6598 26.6072 39.9483 26.8773 38.2134 26.8773ZM43.5237 22.9745V13.3282H47.8494V23.6004L43.5237 22.9745Z" fill="url(#paint1_linear_1205_5215)"/>
<path d="M6.41211 26.5091L17.49 0.736328H21.9915L33.1045 26.5091H28.3217L18.7912 3.27678H20.6199L11.1246 26.5091H6.41211ZM11.5114 20.5445L12.7423 16.7891H26.0358L27.2666 20.5445H11.5114Z" fill="url(#paint2_linear_1205_5215)"/>
<path d="M69.6968 10.3091H0.0644531V16.2H69.6968V10.3091Z" fill="#161616"/>
<path d="M22.4864 14.7891C22.2529 14.7891 22.0362 14.7508 21.8365 14.6742C21.6367 14.5947 21.4637 14.4827 21.3174 14.3384C21.1739 14.1941 21.0614 14.0247 20.9798 13.8303C20.8982 13.633 20.8574 13.4165 20.8574 13.1809C20.8574 12.9452 20.8982 12.7302 20.9798 12.5358C21.0614 12.3384 21.1753 12.1676 21.3216 12.0233C21.4679 11.879 21.641 11.7685 21.8407 11.6919C22.0433 11.6124 22.2641 11.5726 22.5033 11.5726C22.7818 11.5726 23.0308 11.6212 23.2502 11.7184C23.4697 11.8156 23.6512 11.9555 23.7946 12.1382L23.2629 12.6418C23.1616 12.527 23.0519 12.4415 22.9337 12.3856C22.8184 12.3267 22.689 12.2972 22.5455 12.2972C22.4189 12.2972 22.3035 12.3178 22.1994 12.3591C22.0953 12.4003 22.0067 12.4607 21.9336 12.5402C21.8604 12.6168 21.8027 12.7096 21.7605 12.8186C21.7211 12.9246 21.7014 13.0454 21.7014 13.1809C21.7014 13.3105 21.7211 13.4297 21.7605 13.5387C21.8027 13.6477 21.8604 13.742 21.9336 13.8215C22.0067 13.8981 22.0939 13.9584 22.1952 14.0026C22.2993 14.0439 22.4132 14.0645 22.537 14.0645C22.6608 14.0645 22.7818 14.0439 22.9 14.0026C23.0181 13.9584 23.1377 13.8848 23.2587 13.7817L23.7271 14.3958C23.5583 14.5225 23.3628 14.6197 23.1405 14.6874C22.9183 14.7552 22.7002 14.7891 22.4864 14.7891ZM22.9886 14.281V13.1146H23.7271V14.3958L22.9886 14.281ZM24.2568 14.7272V11.6345H25.0924V14.0336H26.5019V14.7272H24.2568ZM28.277 14.7891C28.0407 14.7891 27.8226 14.7493 27.6229 14.6698C27.4231 14.5903 27.2487 14.4783 27.0996 14.334C26.9533 14.1867 26.8393 14.0159 26.7577 13.8215C26.6761 13.6271 26.6354 13.4135 26.6354 13.1809C26.6354 12.9482 26.6761 12.7346 26.7577 12.5402C26.8393 12.3458 26.9533 12.1765 27.0996 12.0321C27.2487 11.8849 27.4231 11.7714 27.6229 11.6919C27.8226 11.6124 28.0407 11.5726 28.277 11.5726C28.5161 11.5726 28.7342 11.6124 28.9311 11.6919C29.1309 11.7714 29.3039 11.8849 29.4502 12.0321C29.5965 12.1765 29.7104 12.3458 29.792 12.5402C29.8764 12.7346 29.9186 12.9482 29.9186 13.1809C29.9186 13.4135 29.8764 13.6286 29.792 13.8259C29.7104 14.0203 29.5965 14.1897 29.4502 14.334C29.3039 14.4783 29.1309 14.5903 28.9311 14.6698C28.7342 14.7493 28.5161 14.7891 28.277 14.7891ZM28.277 14.0645C28.3895 14.0645 28.4936 14.0439 28.5893 14.0026C28.6877 13.9614 28.7721 13.9025 28.8425 13.8259C28.9156 13.7464 28.9719 13.6521 29.0113 13.5431C29.0535 13.4342 29.0746 13.3134 29.0746 13.1809C29.0746 13.0454 29.0535 12.9246 29.0113 12.8186C28.9719 12.7096 28.9156 12.6168 28.8425 12.5402C28.7721 12.4607 28.6877 12.4003 28.5893 12.3591C28.4936 12.3178 28.3895 12.2972 28.277 12.2972C28.1645 12.2972 28.0589 12.3178 27.9605 12.3591C27.8648 12.4003 27.7804 12.4607 27.7073 12.5402C27.6369 12.6168 27.5807 12.7096 27.5385 12.8186C27.4991 12.9246 27.4794 13.0454 27.4794 13.1809C27.4794 13.3134 27.4991 13.4342 27.5385 13.5431C27.5807 13.6521 27.6369 13.7464 27.7073 13.8259C27.7804 13.9025 27.8648 13.9614 27.9605 14.0026C28.0589 14.0439 28.1645 14.0645 28.277 14.0645ZM30.3562 14.7272V11.6345H31.8671C32.2553 11.6345 32.5451 11.7096 32.7364 11.8598C32.9277 12.0071 33.0234 12.2015 33.0234 12.443C33.0234 12.6021 32.9826 12.742 32.901 12.8627C32.8222 12.9806 32.7097 13.0748 32.5634 13.1455C32.4199 13.2133 32.2483 13.2471 32.0485 13.2471L32.1329 13.0351C32.3411 13.0351 32.5226 13.0689 32.6773 13.1367C32.8321 13.2015 32.9516 13.2972 33.036 13.4239C33.1233 13.5476 33.1669 13.6992 33.1669 13.8789C33.1669 14.147 33.0628 14.3561 32.8546 14.5063C32.6492 14.6536 32.3482 14.7272 31.9515 14.7272H30.3562ZM31.1834 14.0954H31.8839C32.0274 14.0954 32.1357 14.0704 32.2089 14.0203C32.2849 13.9673 32.3228 13.8878 32.3228 13.7817C32.3228 13.6757 32.2849 13.5976 32.2089 13.5476C32.1357 13.4945 32.0274 13.468 31.8839 13.468H31.1243V12.8627H31.7573C31.898 12.8627 32.0035 12.8377 32.0738 12.7876C32.1442 12.7376 32.1793 12.6625 32.1793 12.5623C32.1793 12.4622 32.1442 12.3885 32.0738 12.3414C32.0035 12.2913 31.898 12.2663 31.7573 12.2663H31.1834V14.0954ZM33.2451 14.7272L34.5492 11.6345H35.3721L36.6803 14.7272H35.811L34.7897 12.0631H35.1189L34.0976 14.7272H33.2451ZM33.9583 14.1263L34.1736 13.4813H35.6169L35.8321 14.1263H33.9583ZM36.9172 14.7272V11.6345H37.7528V14.0336H39.1623V14.7272H36.9172Z" fill="white"/>
<path d="M43.1629 14.7891C42.921 14.7891 42.6874 14.7581 42.4624 14.6963C42.2401 14.6315 42.0586 14.549 41.918 14.4489L42.1923 13.8038C42.3245 13.8922 42.4764 13.9658 42.6481 14.0247C42.8225 14.0807 42.9955 14.1087 43.1671 14.1087C43.2825 14.1087 43.3753 14.0984 43.4457 14.0777C43.516 14.0542 43.5666 14.0247 43.5976 13.9894C43.6313 13.9511 43.6482 13.9069 43.6482 13.8568C43.6482 13.7861 43.6173 13.7302 43.5554 13.6889C43.4935 13.6477 43.4133 13.6138 43.3148 13.5873C43.2164 13.5608 43.1066 13.5343 42.9857 13.5078C42.8675 13.4813 42.7479 13.4474 42.627 13.4062C42.5088 13.3649 42.4005 13.3119 42.302 13.2471C42.2035 13.1794 42.1234 13.0925 42.0615 12.9865C41.9996 12.8775 41.9686 12.7405 41.9686 12.5756C41.9686 12.39 42.0164 12.2221 42.1121 12.0719C42.2106 11.9217 42.3569 11.8009 42.551 11.7096C42.7451 11.6183 42.9871 11.5726 43.2769 11.5726C43.471 11.5726 43.6609 11.5962 43.8466 11.6433C44.0351 11.6875 44.2025 11.7538 44.3488 11.8421L44.0913 12.4916C43.9507 12.4121 43.8114 12.3532 43.6736 12.3149C43.5357 12.2736 43.4021 12.253 43.2726 12.253C43.1573 12.253 43.0644 12.2663 42.9941 12.2928C42.9238 12.3164 42.8731 12.3488 42.8422 12.39C42.8112 12.4312 42.7958 12.4784 42.7958 12.5314C42.7958 12.5991 42.8253 12.6536 42.8844 12.6949C42.9463 12.7331 43.0265 12.7655 43.1249 12.7921C43.2262 12.8156 43.3359 12.8406 43.4541 12.8672C43.5751 12.8937 43.6947 12.9275 43.8128 12.9688C43.9338 13.0071 44.0435 13.0601 44.142 13.1278C44.2405 13.1926 44.3192 13.2795 44.3783 13.3885C44.4402 13.4945 44.4712 13.6286 44.4712 13.7906C44.4712 13.9702 44.4219 14.1366 44.3235 14.2898C44.2278 14.44 44.0829 14.5608 43.8888 14.6521C43.6975 14.7434 43.4555 14.7891 43.1629 14.7891ZM45.6252 12.8318H46.9968V13.4857H45.6252V12.8318ZM45.6843 14.0512H47.2289V14.7272H44.8572V11.6345H47.174V12.3105H45.6843V14.0512ZM47.6925 14.7272V11.6345H49.043C49.3131 11.6345 49.5452 11.6801 49.7393 11.7715C49.9362 11.8628 50.0882 11.9953 50.1951 12.1691C50.302 12.3399 50.3554 12.5432 50.3554 12.7788C50.3554 13.0115 50.302 13.2132 50.1951 13.3841C50.0882 13.552 49.9362 13.6816 49.7393 13.7729C49.5452 13.8612 49.3131 13.9054 49.043 13.9054H48.1568L48.5281 13.5387V14.7272H47.6925ZM49.5199 14.7272L48.7856 13.6006H49.676L50.4145 14.7272H49.5199ZM48.5281 13.6315L48.1568 13.2294H48.9923C49.1668 13.2294 49.2962 13.1897 49.3806 13.1102C49.4678 13.0306 49.5114 12.9202 49.5114 12.7788C49.5114 12.6345 49.4678 12.5225 49.3806 12.443C49.2962 12.3635 49.1668 12.3237 48.9923 12.3237H48.1568L48.5281 11.9217V13.6315ZM51.7238 14.7272L50.4619 11.6345H51.365L52.4285 14.3119H51.8968L52.9856 11.6345H53.8127L52.5467 14.7272H51.7238ZM53.9857 14.7272V11.6345H54.8213V14.7272H53.9857ZM56.8886 14.7891C56.6551 14.7891 56.4384 14.7508 56.2387 14.6742C56.0417 14.5947 55.8701 14.4827 55.7238 14.3384C55.5803 14.1941 55.4678 14.0247 55.3862 13.8303C55.3046 13.633 55.2638 13.4165 55.2638 13.1809C55.2638 12.9452 55.3046 12.7302 55.3862 12.5358C55.4678 12.3384 55.5803 12.1676 55.7238 12.0233C55.8701 11.879 56.0417 11.7685 56.2387 11.6919C56.4384 11.6124 56.6551 11.5726 56.8886 11.5726C57.1615 11.5726 57.4048 11.6227 57.6187 11.7228C57.8353 11.823 58.0154 11.9673 58.1588 12.1558L57.6271 12.6595C57.5315 12.5417 57.4259 12.4519 57.3106 12.39C57.1981 12.3281 57.0715 12.2972 56.9308 12.2972C56.8098 12.2972 56.6987 12.3178 56.5974 12.3591C56.4961 12.4003 56.4089 12.4607 56.3357 12.5402C56.2654 12.6168 56.2091 12.7096 56.1669 12.8186C56.1275 12.9275 56.1079 13.0483 56.1079 13.1809C56.1079 13.3134 56.1275 13.4342 56.1669 13.5431C56.2091 13.6521 56.2654 13.7464 56.3357 13.8259C56.4089 13.9025 56.4961 13.9614 56.5974 14.0026C56.6987 14.0439 56.8098 14.0645 56.9308 14.0645C57.0715 14.0645 57.1981 14.0336 57.3106 13.9717C57.4259 13.9098 57.5315 13.82 57.6271 13.7022L58.1588 14.2059C58.0154 14.3914 57.8353 14.5358 57.6187 14.6389C57.4048 14.739 57.1615 14.7891 56.8886 14.7891ZM59.2995 12.8318H60.671V13.4857H59.2995V12.8318ZM59.3586 14.0512H60.9031V14.7272H58.5314V11.6345H60.8483V12.3105H59.3586V14.0512ZM62.4049 14.7891C62.163 14.7891 61.9295 14.7581 61.7044 14.6963C61.4821 14.6315 61.3007 14.549 61.16 14.4489L61.4343 13.8038C61.5665 13.8922 61.7185 13.9658 61.8901 14.0247C62.0645 14.0807 62.2375 14.1087 62.4092 14.1087C62.5245 14.1087 62.6174 14.0984 62.6877 14.0777C62.758 14.0542 62.8087 14.0247 62.8396 13.9894C62.8734 13.9511 62.8903 13.9069 62.8903 13.8568C62.8903 13.7861 62.8593 13.7302 62.7974 13.6889C62.7355 13.6477 62.6553 13.6138 62.5569 13.5873C62.4584 13.5608 62.3487 13.5343 62.2277 13.5078C62.1095 13.4813 61.99 13.4474 61.869 13.4062C61.7508 13.3649 61.6425 13.3119 61.544 13.2471C61.4456 13.1794 61.3654 13.0925 61.3035 12.9865C61.2416 12.8775 61.2106 12.7405 61.2106 12.5756C61.2106 12.39 61.2585 12.2221 61.3541 12.0719C61.4526 11.9217 61.5989 11.8009 61.793 11.7096C61.9872 11.6183 62.2291 11.5726 62.5189 11.5726C62.713 11.5726 62.9029 11.5962 63.0886 11.6433C63.2771 11.6875 63.4445 11.7538 63.5908 11.8421L63.3334 12.4916C63.1927 12.4121 63.0534 12.3532 62.9156 12.3149C62.7777 12.2736 62.6441 12.253 62.5147 12.253C62.3993 12.253 62.3065 12.2663 62.2361 12.2928C62.1658 12.3164 62.1152 12.3488 62.0842 12.39C62.0533 12.4312 62.0378 12.4784 62.0378 12.5314C62.0378 12.5991 62.0673 12.6536 62.1264 12.6949C62.1883 12.7331 62.2685 12.7655 62.367 12.7921C62.4683 12.8156 62.578 12.8406 62.6961 12.8672C62.8171 12.8937 62.9367 12.9275 63.0548 12.9688C63.1758 13.0071 63.2856 13.0601 63.384 13.1278C63.4825 13.1926 63.5613 13.2795 63.6203 13.3885C63.6822 13.4945 63.7132 13.6286 63.7132 13.7906C63.7132 13.9702 63.664 14.1366 63.5655 14.2898C63.4698 14.44 63.3249 14.5608 63.1308 14.6521C62.9395 14.7434 62.6975 14.7891 62.4049 14.7891Z" fill="white"/>
<path d="M5.64648 14.7272L6.95051 11.6345H7.77344L9.08168 14.7272H8.21233L7.19106 12.0631H7.52023L6.49895 14.7272H5.64648ZM6.35969 14.1264L6.57492 13.4813H8.01821L8.23343 14.1264H6.35969ZM9.31857 14.7272V11.6345H10.1542V14.0336H11.5637V14.7272H9.31857ZM11.8943 14.7272V11.6345H12.7299V14.7272H11.8943ZM14.0714 14.0424L14.0249 13.0616L15.2952 11.6345H16.2152L14.9492 13.0704L14.4849 13.5785L14.0714 14.0424ZM13.3244 14.7272V11.6345H14.1516V14.7272H13.3244ZM15.3079 14.7272L14.3457 13.4504L14.8901 12.8407L16.2785 14.7272H15.3079ZM16.4977 14.7272V11.6345H17.3333V14.7272H16.4977Z" fill="white"/>
</g>
<defs>
<linearGradient id="paint0_linear_1205_5215" x1="52.113" y1="-8.83638" x2="52.113" y2="36.0818" gradientUnits="userSpaceOnUse">
<stop stop-color="white"/>
<stop offset="1" stop-color="#7C7C7C"/>
</linearGradient>
<linearGradient id="paint1_linear_1205_5215" x1="36.9906" y1="-8.83638" x2="36.9906" y2="36.0818" gradientUnits="userSpaceOnUse">
<stop stop-color="white"/>
<stop offset="1" stop-color="#7C7C7C"/>
</linearGradient>
<linearGradient id="paint2_linear_1205_5215" x1="19.7587" y1="-8.8364" x2="19.7587" y2="36.0818" gradientUnits="userSpaceOnUse">
<stop stop-color="white"/>
<stop offset="1" stop-color="#7C7C7C"/>
</linearGradient>
<clipPath id="clip0_1205_5215">
<rect width="70" height="27" fill="white"/>
</clipPath>
</defs>
</svg>
