<svg width="32" height="33" viewBox="0 0 32 33" fill="none" xmlns="http://www.w3.org/2000/svg">
<path d="M3.65258 24.6749C3.582 24.6924 3.50263 24.701 3.41445 24.7009C3.32627 24.7007 3.2381 24.7005 3.14992 24.7004C2.55031 24.6992 1.97736 24.5923 1.43107 24.3796C0.884779 24.1669 0.524036 23.7606 0.348845 23.1607C0.296247 23.0018 0.270136 22.8254 0.270512 22.6314C0.271435 22.1553 0.422175 21.7235 0.722731 21.3361C0.793412 21.2657 0.864038 21.2217 0.934613 21.2042C0.987588 21.1691 1.01397 21.2044 1.01377 21.3102C1.065 22.1745 1.36361 22.7923 1.90959 23.1637C2.47317 23.5528 3.13413 23.748 3.89246 23.7495C4.61551 23.7509 5.3565 23.6024 6.11541 23.3041C6.89195 23.0058 7.5805 22.6015 8.18112 22.0913C8.95842 21.405 9.6742 20.6128 10.3284 19.7146C11.0004 18.8165 11.637 17.9095 12.2384 16.9936C12.4507 16.6413 12.6718 16.289 12.9018 15.9368C13.1317 15.5845 13.3616 15.241 13.5916 14.9064L7.00467 14.8936C6.96943 14.8936 6.95181 14.8759 6.95189 14.8407C6.95206 14.7525 7.01397 14.6468 7.13766 14.5236C7.27902 14.3828 7.39379 14.3124 7.48198 14.3126L13.963 14.3252C14.7412 13.1804 15.5458 12.0621 16.3768 10.9703C17.2078 9.86085 18.0474 8.84842 18.8957 7.933C19.9383 6.84163 21.0246 5.97076 22.1546 5.32044C23.3022 4.65252 24.3346 4.293 25.2517 4.24187C25.7456 4.20755 26.1864 4.23487 26.5743 4.3238C26.9797 4.39512 27.3057 4.53684 27.5522 4.74895C27.7811 4.92573 27.9482 5.14653 28.0535 5.41123C28.1588 5.67598 28.2112 5.94943 28.2106 6.23163C28.2105 6.30215 28.2016 6.37268 28.1838 6.44317C28.1836 6.51374 28.1747 6.59306 28.1568 6.68121C28.1034 6.96327 27.9971 7.19235 27.8381 7.36839C27.7674 7.43879 27.6968 7.47391 27.6262 7.47378C27.5028 7.47357 27.4941 7.39417 27.6003 7.23566C27.7594 7.02433 27.8392 6.76876 27.8398 6.46898C27.8401 6.31026 27.814 6.16912 27.7613 6.04556C27.6385 5.71024 27.4009 5.4629 27.0485 5.3035C26.7138 5.12647 26.3171 5.03756 25.8586 5.03666C24.871 5.03474 23.8298 5.38542 22.7351 6.08874C21.9405 6.5986 21.1279 7.28481 20.2973 8.14736C19.4845 8.99229 18.6626 9.94303 17.8317 10.9995C17.0184 12.0561 16.205 13.1656 15.3915 14.3279L19.2801 14.3355C19.4395 14.0183 19.5988 13.7012 19.7581 13.3841C19.9351 13.067 20.1121 12.7499 20.2891 12.4328C20.9439 11.2525 21.6162 10.1251 22.306 9.05066C23.0136 7.95865 23.6416 6.97228 24.19 6.09155C24.2431 6.00349 24.2961 5.9595 24.349 5.95958C24.4195 5.95971 24.4635 5.99508 24.481 6.06565C24.4985 6.13622 24.4808 6.19792 24.4278 6.25074C23.6141 7.48364 22.8974 8.78727 22.2775 10.1617C21.6752 11.5361 21.1258 12.9282 20.6292 14.3381L21.9255 14.3406C21.9607 14.3407 21.9783 14.3583 21.9783 14.3936C21.9781 14.4642 21.9074 14.5698 21.766 14.7106C21.6423 14.8515 21.5276 14.9218 21.4217 14.9216L20.4165 14.9197C20.2569 15.3779 20.0617 15.9947 19.8309 16.7703C19.6178 17.5282 19.4223 18.3214 19.2443 19.1499C19.084 19.9785 19.0032 20.7367 19.0019 21.4245C19.0006 22.0593 19.0967 22.5533 19.2899 22.9064C19.5009 23.2595 19.8268 23.4365 20.2677 23.4373C20.3206 23.4375 20.3735 23.4376 20.4264 23.4377C20.4793 23.4378 20.5323 23.4291 20.5852 23.4115C20.8851 23.3592 21.1852 23.1922 21.4856 22.9107C21.8036 22.6291 22.1129 22.2946 22.4134 21.9072C22.8377 21.3614 23.2268 20.7801 23.5807 20.1636C23.9346 19.547 24.2001 19.0713 24.3771 18.7366C24.4655 18.5957 24.5362 18.5253 24.5891 18.5254C24.6597 18.5256 24.6948 18.5873 24.6946 18.7108C24.6944 18.7813 24.6678 18.8695 24.6147 18.9752C24.367 19.4156 24.0484 19.9705 23.6592 20.6399C23.2876 21.2917 22.8719 21.8993 22.4123 22.4628C22.0765 22.8501 21.7231 23.1845 21.3522 23.4659C20.9813 23.7474 20.593 23.923 20.1873 23.9927C20.0814 24.0101 19.9756 24.0188 19.8698 24.0186C19.7815 24.036 19.6846 24.0447 19.5788 24.0444C19.0673 24.0435 18.6179 23.8927 18.2305 23.5921C17.8431 23.3092 17.5795 22.8237 17.4397 22.1357C17.4048 21.9416 17.3788 21.7387 17.3615 21.5271C17.3443 21.3154 17.3359 21.1126 17.3363 20.9186C17.3382 19.8958 17.5166 18.8644 17.8713 17.8246C18.2437 16.7848 18.6247 15.8156 19.0145 14.9169L14.9407 14.909C14.6578 15.2965 14.3836 15.7015 14.1183 16.1243C13.8529 16.5294 13.5788 16.9345 13.2958 17.3396C12.783 18.0793 12.1642 18.8628 11.4395 19.6903C10.7325 20.5002 9.95507 21.2746 9.10716 22.0137C8.25924 22.7351 7.36747 23.3418 6.43183 23.8338C5.51381 24.3258 4.58739 24.6062 3.65258 24.6749Z" fill="white" stroke="white" stroke-width="0.3"/>
<path d="M8.12832 29.1977C7.87808 29.0157 7.70498 28.8077 7.60902 28.5736C7.53111 28.3422 7.50726 28.1183 7.53756 27.9019C7.57536 27.6315 7.66748 27.433 7.81382 27.3064C7.89856 27.2263 7.97826 27.1823 8.05288 27.1744C8.14304 27.187 8.16377 27.2359 8.11509 27.3209C8.01564 27.6379 8.09896 27.962 8.36512 28.2934C8.64676 28.6453 8.9165 28.8852 9.17433 29.0131C9.48623 29.1487 9.77739 29.2354 10.0478 29.2732C10.3183 29.311 10.5847 29.3116 10.8472 29.2747C11.1252 29.2585 11.3865 29.2307 11.6309 29.1913C12.3719 29.0192 13.1404 28.5845 13.9364 27.887C14.7325 27.1896 15.4883 26.3854 16.2039 25.4745C17.1377 24.3184 18.0773 22.9885 19.0229 21.4848C19.9711 19.963 20.9579 18.4927 21.9836 17.0737C20.7207 18.3492 19.4083 19.4524 18.0465 20.3832C16.7028 21.3165 15.3801 21.9679 14.0785 22.3373C13.5229 22.4985 12.9298 22.5994 12.2991 22.6398C11.684 22.7008 11.0699 22.6885 10.4569 22.6027C9.84399 22.517 9.26035 22.3527 8.70611 22.1097C8.16992 21.8693 7.70041 21.5463 7.2976 21.1407C6.78624 20.5912 6.46257 19.9485 6.3265 19.2126C6.193 18.4587 6.17922 17.7031 6.28512 16.9459C6.3431 16.5312 6.4269 16.1293 6.53647 15.7403C6.6666 15.3357 6.79289 14.9582 6.91548 14.6077C7.36783 13.4762 7.99797 12.3879 8.80587 11.3428C9.6138 10.2978 10.5481 9.33476 11.6088 8.45374C12.672 7.55467 13.8257 6.79699 15.07 6.18059C16.5122 5.46323 18 4.94526 19.5335 4.62668C21.085 4.31061 22.654 4.26354 24.2406 4.48545C24.6913 4.54849 25.1202 4.63605 25.5273 4.74814C25.9524 4.86274 26.3274 5.00713 26.6524 5.18121C27.2016 5.46025 27.5784 5.78865 27.7829 6.16651C27.9873 6.54436 28.0606 6.94065 28.0026 7.35529C27.9093 8.02238 27.5366 8.65035 26.8844 9.23928C26.1705 9.87467 25.3517 10.2748 24.4279 10.4397C23.5247 10.5891 22.7216 10.6146 22.0184 10.5163C21.8561 10.4936 21.7029 10.4722 21.5587 10.452C21.435 10.4163 21.3113 10.3807 21.1876 10.345C21.0099 10.3017 20.9285 10.226 20.9437 10.1178C20.9613 9.99162 21.0758 9.96171 21.2871 10.028C21.4108 10.0637 21.5435 10.1006 21.6852 10.1388C21.8294 10.159 21.9737 10.1792 22.1179 10.1994C22.785 10.2927 23.507 10.2558 24.284 10.0887C25.0816 9.9062 25.8308 9.47791 26.5316 8.80391C26.8936 8.45016 27.1074 8.03889 27.173 7.57011C27.2184 7.24559 27.1711 6.92653 27.0311 6.61284C26.9092 6.30168 26.6535 6.02694 26.2641 5.78865C25.6915 5.41446 24.9699 5.18488 24.0995 5.09988C22.9226 4.97201 21.7063 5.05926 20.4509 5.3616C19.216 5.64841 18.006 6.08574 16.8208 6.67364C15.6357 7.2615 14.5268 7.96115 13.4942 8.77259C12.4642 9.56597 11.5746 10.4066 10.8254 11.2944C10.4714 11.7228 10.0894 12.2852 9.67959 12.9815C9.29026 13.6623 8.92815 14.4113 8.5933 15.2284C8.27897 16.03 8.06632 16.8274 7.95539 17.6207C7.82679 18.5401 7.89233 19.3857 8.15204 20.1573C8.41175 20.9289 8.9837 21.5052 9.86788 21.8862C10.0921 21.9911 10.3846 22.0688 10.7452 22.1192C11.1959 22.1822 11.7018 22.1794 12.2628 22.1109C12.8394 22.0628 13.4453 21.9362 14.0806 21.731C15.1197 21.3984 16.1725 20.9023 17.239 20.2426C18.326 19.5675 19.3716 18.7947 20.3757 17.9241C21.3798 17.0536 22.2679 16.1576 23.0401 15.2362C23.4789 14.7278 23.7974 14.4874 23.9958 14.5152C24.6476 13.7975 25.3151 13.1648 25.9983 12.617C26.6996 12.0717 27.418 11.6668 28.1535 11.402C28.7708 11.1942 29.3589 11.1294 29.9178 11.2076C30.1701 11.2429 30.4097 11.304 30.6366 11.3909C30.7242 11.4215 30.7437 11.4794 30.695 11.5645C30.6489 11.6316 30.591 11.651 30.5214 11.6229C30.3667 11.5461 30.1992 11.4951 30.0189 11.4699C29.5862 11.4094 29.096 11.4971 28.5484 11.7329C28.0007 11.9688 27.4316 12.358 26.841 12.9003C25.9166 13.7269 25.0775 14.6665 24.3237 15.7191C23.5904 16.7562 22.8844 17.8614 22.2055 19.0348C21.5473 20.1927 20.8517 21.3546 20.1188 22.5204C19.4065 23.6707 18.6 24.7711 17.6995 25.8215C16.8886 26.7559 16.0028 27.5695 15.042 28.2623C14.0812 28.955 13.0399 29.4343 11.9182 29.7002C11.2724 29.8489 10.5529 29.8677 9.75964 29.7568C9.43511 29.7114 9.12339 29.6402 8.82447 29.5432C8.54355 29.4488 8.31153 29.3337 8.12832 29.1977Z" fill="white" stroke="white" stroke-width="0.3"/>
</svg>
