<svg width="144" height="126" viewBox="0 0 144 126" fill="none" xmlns="http://www.w3.org/2000/svg">
<path d="M9 99V108C9 110.387 9.94821 112.676 11.636 114.364C13.3239 116.052 15.6131 117 18 117H126C128.387 117 130.676 116.052 132.364 114.364C134.052 112.676 135 110.387 135 108V76.5L101.007 58.977C100.163 58.5542 99.2074 58.4075 98.2755 58.5578C97.3435 58.708 96.4824 59.1474 95.814 59.814L62.424 93.204L38.484 77.256C37.6196 76.6805 36.5829 76.4217 35.5494 76.5234C34.516 76.6251 33.5496 77.0811 32.814 77.814L9 99Z" fill="#EEEEEE"/>
<path fill-rule="evenodd" clip-rule="evenodd" d="M0 18C0 13.2261 1.89642 8.64773 5.27208 5.27208C8.64773 1.89642 13.2261 0 18 0H126C130.774 0 135.352 1.89642 138.728 5.27208C142.104 8.64773 144 13.2261 144 18V108C144 112.774 142.104 117.352 138.728 120.728C135.352 124.104 130.774 126 126 126H18C13.2261 126 8.64773 124.104 5.27208 120.728C1.89642 117.352 0 112.774 0 108V18ZM9 108V99L32.814 77.814C33.5496 77.0811 34.516 76.6251 35.5494 76.5234C36.5829 76.4217 37.6196 76.6805 38.484 77.256L62.424 93.204L95.814 59.814C96.4824 59.1474 97.3435 58.708 98.2755 58.5578C99.2074 58.4075 100.163 58.5542 101.007 58.977L135 76.5V108C135 110.387 134.052 112.676 132.364 114.364C130.676 116.052 128.387 117 126 117H18C15.6131 117 13.3239 116.052 11.636 114.364C9.94821 112.676 9 110.387 9 108ZM50.0459 30.9541C52.5777 33.4858 54 36.9196 54 40.5C54 44.0804 52.5777 47.5142 50.0459 50.0459C47.5142 52.5777 44.0804 54 40.5 54C36.9196 54 33.4858 52.5777 30.9541 50.0459C28.4223 47.5142 27 44.0804 27 40.5C27 36.9196 28.4223 33.4858 30.9541 30.9541C33.4858 28.4223 36.9196 27 40.5 27C44.0804 27 47.5142 28.4223 50.0459 30.9541Z" fill="white"/>
</svg>
