<svg width="32" height="32" viewBox="0 0 32 32" fill="none" xmlns="http://www.w3.org/2000/svg">
<path d="M26.666 7.99996C26.666 7.64634 26.5255 7.3072 26.2755 7.05715C26.0254 6.8071 25.6863 6.66663 25.3327 6.66663H6.66602C6.31239 6.66663 5.97325 6.8071 5.72321 7.05715C5.47316 7.3072 5.33268 7.64634 5.33268 7.99996C5.33268 8.35358 5.47316 8.69272 5.72321 8.94277C5.97325 9.19282 6.31239 9.33329 6.66602 9.33329H25.3327C25.6863 9.33329 26.0254 9.19282 26.2755 8.94277C26.5255 8.69272 26.666 8.35358 26.666 7.99996ZM26.666 24C26.666 23.6463 26.5255 23.3072 26.2755 23.0571C26.0254 22.8071 25.6863 22.6666 25.3327 22.6666H6.66602C6.31239 22.6666 5.97325 22.8071 5.72321 23.0571C5.47316 23.3072 5.33268 23.6463 5.33268 24C5.33268 24.3536 5.47316 24.6927 5.72321 24.9428C5.97325 25.1928 6.31239 25.3333 6.66602 25.3333H25.3327C25.6863 25.3333 26.0254 25.1928 26.2755 24.9428C26.5255 24.6927 26.666 24.3536 26.666 24ZM17.3327 14.6666C17.6863 14.6666 18.0254 14.8071 18.2755 15.0571C18.5255 15.3072 18.666 15.6463 18.666 16C18.666 16.3536 18.5255 16.6927 18.2755 16.9428C18.0254 17.1928 17.6863 17.3333 17.3327 17.3333H6.66602C6.31239 17.3333 5.97325 17.1928 5.72321 16.9428C5.47316 16.6927 5.33268 16.3536 5.33268 16C5.33268 15.6463 5.47316 15.3072 5.72321 15.0571C5.97325 14.8071 6.31239 14.6666 6.66602 14.6666H17.3327Z" fill="#B92F2F"/>
</svg>
