<svg width="36" height="36" viewBox="0 0 36 36" fill="none" xmlns="http://www.w3.org/2000/svg">
<rect width="36" height="36" rx="4" fill="#005770"/>
<path d="M10 17.2H12.6667C13.1382 17.2 13.5903 17.3686 13.9237 17.6686C14.2571 17.9687 14.4444 18.3757 14.4444 18.8V21.2C14.4444 21.6243 14.2571 22.0313 13.9237 22.3314C13.5903 22.6314 13.1382 22.8 12.6667 22.8H11.7778C11.3063 22.8 10.8541 22.6314 10.5207 22.3314C10.1873 22.0313 10 21.6243 10 21.2V17.2ZM10 17.2C10 16.2545 10.2069 15.3182 10.609 14.4447C11.011 13.5711 11.6003 12.7774 12.3431 12.1088C13.086 11.4402 13.9679 10.9099 14.9385 10.5481C15.9091 10.1862 16.9494 10 18 10C19.0506 10 20.0909 10.1862 21.0615 10.5481C22.0321 10.9099 22.914 11.4402 23.6569 12.1088C24.3997 12.7774 24.989 13.5711 25.391 14.4447C25.7931 15.3182 26 16.2545 26 17.2M26 17.2V21.2M26 17.2H23.3333C22.8618 17.2 22.4097 17.3686 22.0763 17.6686C21.7429 17.9687 21.5556 18.3757 21.5556 18.8V21.2C21.5556 21.6243 21.7429 22.0313 22.0763 22.3314C22.4097 22.6314 22.8618 22.8 23.3333 22.8H24.2222C24.6937 22.8 25.1459 22.6314 25.4793 22.3314C25.8127 22.0313 26 21.6243 26 21.2M26 21.2V22.8C26 23.6487 25.6254 24.4626 24.9586 25.0627C24.2918 25.6629 23.3874 26 22.4444 26H18" stroke="white" stroke-width="1.5" stroke-linecap="round" stroke-linejoin="round"/>
</svg>
