<svg width="147" height="132" viewBox="0 0 147 132" fill="none" xmlns="http://www.w3.org/2000/svg">
<path d="M124.667 0C130.501 0 136.097 2.31785 140.223 6.44365C144.349 10.5695 146.667 16.1652 146.667 22V110C146.667 115.835 144.349 121.431 140.223 125.556C136.097 129.682 130.501 132 124.667 132H22C16.1652 132 10.5695 129.682 6.44365 125.556C2.31785 121.431 0 115.835 0 110V22C0 16.1652 2.31785 10.5695 6.44365 6.44365C10.5695 2.31785 16.1652 0 22 0H124.667ZM73.3333 29.3333C63.6087 29.3333 54.2824 33.1964 47.4061 40.0728C40.5298 46.9491 36.6667 56.2754 36.6667 66C36.6667 75.7246 40.5298 85.0509 47.4061 91.9273C54.2824 98.8036 63.6087 102.667 73.3333 102.667C83.0579 102.667 92.3842 98.8036 99.2606 91.9273C106.137 85.0509 110 75.7246 110 66C110 56.2754 106.137 46.9491 99.2606 40.0728C92.3842 33.1964 83.0579 29.3333 73.3333 29.3333ZM73.3333 44C79.1681 44 84.7639 46.3178 88.8897 50.4436C93.0155 54.5695 95.3333 60.1652 95.3333 66C95.3333 71.8348 93.0155 77.4305 88.8897 81.5564C84.7639 85.6822 79.1681 88 73.3333 88C67.4986 88 61.9028 85.6822 57.777 81.5564C53.6512 77.4305 51.3333 71.8348 51.3333 66C51.3333 60.1652 53.6512 54.5695 57.777 50.4436C61.9028 46.3178 67.4986 44 73.3333 44ZM124.667 22H117.333C115.464 22.0021 113.666 22.7178 112.307 24.0009C110.948 25.284 110.13 27.0377 110.021 28.9036C109.911 30.7695 110.518 32.6068 111.718 34.0401C112.918 35.4734 114.619 36.3946 116.475 36.6153L117.333 36.6667H124.667C126.536 36.6646 128.334 35.9489 129.693 34.6658C131.052 33.3827 131.87 31.629 131.979 29.7631C132.089 27.8972 131.482 26.0599 130.282 24.6266C129.082 23.1932 127.381 22.2721 125.525 22.0513L124.667 22Z" fill="white"/>
</svg>
