<svg width="16" height="16" viewBox="0 0 16 16" fill="none" xmlns="http://www.w3.org/2000/svg">
<g clip-path="url(#clip0_989_5053)">
<path d="M11.6673 4.33325H11.674M4.66732 1.33325H11.334C13.1749 1.33325 14.6673 2.82564 14.6673 4.66659V11.3333C14.6673 13.1742 13.1749 14.6666 11.334 14.6666H4.66732C2.82637 14.6666 1.33398 13.1742 1.33398 11.3333V4.66659C1.33398 2.82564 2.82637 1.33325 4.66732 1.33325ZM10.6673 7.57992C10.7496 8.13475 10.6548 8.7014 10.3965 9.19926C10.1382 9.69713 9.72942 10.1009 9.2284 10.353C8.72739 10.6052 8.15962 10.693 7.60584 10.6039C7.05207 10.5148 6.54049 10.2533 6.14388 9.85669C5.74726 9.46008 5.48581 8.9485 5.3967 8.39473C5.30759 7.84095 5.39536 7.27318 5.64754 6.77217C5.89971 6.27115 6.30344 5.86241 6.80131 5.60408C7.29917 5.34575 7.86582 5.25098 8.42065 5.33325C8.9866 5.41717 9.51055 5.68089 9.91511 6.08546C10.3197 6.49002 10.5834 7.01397 10.6673 7.57992Z" stroke="black" stroke-opacity="0.5" stroke-linecap="round" stroke-linejoin="round"/>
</g>
<defs>
<clipPath id="clip0_989_5053">
<rect width="16" height="16" fill="white"/>
</clipPath>
</defs>
</svg>
