<svg width="20" height="20" viewBox="0 0 20 20" fill="none" xmlns="http://www.w3.org/2000/svg">
<g clip-path="url(#clip0_2464_7297)">
<path d="M14.5837 5.4165H14.592M5.83366 1.6665H14.167C16.4682 1.6665 18.3337 3.53198 18.3337 5.83317V14.1665C18.3337 16.4677 16.4682 18.3332 14.167 18.3332H5.83366C3.53247 18.3332 1.66699 16.4677 1.66699 14.1665V5.83317C1.66699 3.53198 3.53247 1.6665 5.83366 1.6665ZM13.3337 9.47484C13.4365 10.1684 13.318 10.8767 12.9951 11.499C12.6722 12.1213 12.1613 12.626 11.535 12.9412C10.9087 13.2564 10.199 13.3662 9.50681 13.2548C8.8146 13.1434 8.17513 12.8166 7.67936 12.3208C7.18359 11.825 6.85677 11.1856 6.74538 10.4933C6.63399 9.80113 6.74371 9.09141 7.05893 8.46515C7.37415 7.83888 7.87881 7.32795 8.50115 7.00504C9.12348 6.68212 9.83179 6.56366 10.5253 6.6665C11.2328 6.77141 11.8877 7.10106 12.3934 7.60676C12.8991 8.11246 13.2288 8.7674 13.3337 9.47484Z" stroke="black" stroke-opacity="0.5" stroke-width="2" stroke-linecap="round" stroke-linejoin="round"/>
</g>
<defs>
<clipPath id="clip0_2464_7297">
<rect width="20" height="20" fill="white"/>
</clipPath>
</defs>
</svg>
