<svg width="32" height="31" viewBox="0 0 32 31" fill="none" xmlns="http://www.w3.org/2000/svg">
<path d="M12.8438 21.3863V14.0017L17.2317 17.8546C17.9018 18.2439 18.2746 18.3376 18.9441 17.8546L23.5461 14.0017L23.6531 21.3863H12.8438Z" fill="url(#paint0_linear_2196_7313)"/>
<path d="M27.9507 5.8679H11.4296C9.89626 5.8679 8.52221 4.92097 7.97634 3.48807C7.48185 2.19004 6.30123 1.27894 4.92025 1.12964L3.65934 0.993326C3.3628 0.961267 3.06288 0.984242 2.77468 1.0611L1.77119 1.32869C0.845354 1.57558 0.364529 2.59635 0.763762 3.4674C1.01572 4.01713 1.56496 4.36957 2.16967 4.36957H2.83962C4.1042 4.36957 5.18398 5.2826 5.39415 6.52959L8.08502 22.4954C8.18777 23.1051 8.41544 23.6868 8.75375 24.2043C9.57046 25.4533 10.955 26.2143 12.4473 26.2342L25.5747 26.4092C25.9193 26.4138 26.2512 26.2789 26.4949 26.0352C26.9937 25.5365 26.9937 24.7278 26.4949 24.229L26.1872 23.9213C25.866 23.6002 25.4305 23.4197 24.9763 23.4197H12.8222C12.0227 23.4197 11.2658 23.0595 10.7616 22.439C10.3771 21.9657 10.1672 21.3745 10.1672 20.7647V11.2348C10.1672 10.3395 10.893 9.61372 11.7883 9.61372C12.3736 9.61372 12.9135 9.92927 13.2008 10.4393L14.2772 12.3505C15.9625 15.3429 20.2218 15.4789 22.0947 12.6002L23.0457 11.1385C23.4777 10.4745 24.2668 10.1358 25.0456 10.28C25.9747 10.4521 26.6488 11.2625 26.6488 12.2074V19.9355C26.6488 20.7304 27.5028 21.2329 28.1977 20.8469C28.4395 20.7126 28.6179 20.4878 28.6939 20.2219L31.4642 10.5258C31.799 9.35385 31.5275 8.0921 30.7402 7.16165C30.0459 6.34113 29.0256 5.8679 27.9507 5.8679Z" fill="url(#paint1_linear_2196_7313)"/>
<ellipse cx="24.0807" cy="27.7007" rx="2.46154" ry="2.35452" fill="url(#paint2_linear_2196_7313)"/>
<ellipse cx="11.6647" cy="27.7007" rx="2.46154" ry="2.35452" fill="url(#paint3_linear_2196_7313)"/>
<defs>
<linearGradient id="paint0_linear_2196_7313" x1="18.2484" y1="14.0017" x2="18.2484" y2="21.3863" gradientUnits="userSpaceOnUse">
<stop stop-color="white"/>
<stop offset="1" stop-color="#7C7C7C"/>
</linearGradient>
<linearGradient id="paint1_linear_2196_7313" x1="16" y1="0.944824" x2="16" y2="26.4164" gradientUnits="userSpaceOnUse">
<stop stop-color="white"/>
<stop offset="1" stop-color="#7C7C7C"/>
</linearGradient>
<linearGradient id="paint2_linear_2196_7313" x1="24.0807" y1="25.3462" x2="24.0807" y2="30.0552" gradientUnits="userSpaceOnUse">
<stop stop-color="white"/>
<stop offset="1" stop-color="#7C7C7C"/>
</linearGradient>
<linearGradient id="paint3_linear_2196_7313" x1="11.6647" y1="25.3462" x2="11.6647" y2="30.0552" gradientUnits="userSpaceOnUse">
<stop stop-color="white"/>
<stop offset="1" stop-color="#7C7C7C"/>
</linearGradient>
</defs>
</svg>
