<svg width="32" height="30" viewBox="0 0 32 30" fill="none" xmlns="http://www.w3.org/2000/svg">
<path d="M12.8428 20.4415V13.0569L17.2307 16.9097C17.9008 17.2991 18.2737 17.3928 18.9431 16.9097L23.5451 13.0569L23.6521 20.4415H12.8428Z" fill="white"/>
<ellipse cx="24.0807" cy="26.7559" rx="2.46154" ry="2.35452" fill="white"/>
<ellipse cx="11.6656" cy="26.7559" rx="2.46154" ry="2.35452" fill="white"/>
<path d="M27.9507 4.92308H11.4296C9.89626 4.92308 8.52221 3.97614 7.97634 2.54324C7.48185 1.24521 6.30123 0.334111 4.92025 0.184816L3.65934 0.0485018C3.3628 0.016443 3.06288 0.0394182 2.77468 0.116272L1.77119 0.383871C0.845354 0.630759 0.364529 1.65152 0.763762 2.52258C1.01572 3.0723 1.56496 3.42475 2.16967 3.42475H2.83962C4.1042 3.42475 5.18398 4.33777 5.39415 5.58477L8.08502 21.5506C8.18777 22.1602 8.41544 22.742 8.75375 23.2594C9.57046 24.5085 10.955 25.2695 12.4473 25.2894L25.5747 25.4644C25.9193 25.469 26.2512 25.3341 26.4949 25.0904C26.9937 24.5916 26.9937 23.7829 26.4949 23.2842L26.1872 22.9765C25.866 22.6553 25.4305 22.4749 24.9763 22.4749H12.8222C12.0227 22.4749 11.2658 22.1146 10.7616 21.4941C10.3771 21.0209 10.1672 20.4297 10.1672 19.8199V10.29C10.1672 9.39468 10.893 8.6689 11.7883 8.6689C12.3736 8.6689 12.9135 8.98444 13.2008 9.49445L14.2772 11.4057C15.9625 14.398 20.2218 14.5341 22.0947 11.6554L23.0457 10.1936C23.4777 9.52969 24.2668 9.19099 25.0456 9.33522C25.9747 9.50727 26.6488 10.3177 26.6488 11.2626V18.9906C26.6488 19.7856 27.5028 20.2881 28.1977 19.902C28.4395 19.7677 28.6179 19.5429 28.6939 19.2771L31.4642 9.58098C31.799 8.40903 31.5275 7.14728 30.7402 6.21682C30.0459 5.3963 29.0256 4.92308 27.9507 4.92308Z" fill="white"/>
</svg>
