<svg width="150" height="136" viewBox="0 0 150 136" fill="none" xmlns="http://www.w3.org/2000/svg">
<path d="M60 95.5V61L80.5 79C83.6306 80.8189 85.3724 81.2569 88.5 79L110 61L110.5 95.5H60Z" fill="#005770"/>
<ellipse cx="112.5" cy="125" rx="11.5" ry="11" fill="#005770"/>
<ellipse cx="54.5" cy="125" rx="11.5" ry="11" fill="#005770"/>
<path d="M130.582 23H53.3977C46.2341 23 39.8147 18.576 37.2645 11.8817C34.9543 5.81747 29.4386 1.56093 22.9868 0.863436L17.096 0.226595C15.7106 0.0768195 14.3094 0.184157 12.963 0.543208L8.27477 1.7934C3.94939 2.94683 1.70303 7.71571 3.5682 11.7852C4.74531 14.3534 7.31131 16 10.1365 16H13.2663C19.1743 16 24.2189 20.2655 25.2008 26.0914L37.7722 100.682C38.2522 103.53 39.3159 106.248 40.8964 108.665C44.712 114.501 51.1806 118.056 58.1522 118.149L119.482 118.966C121.092 118.988 122.642 118.358 123.781 117.219C126.111 114.889 126.111 111.111 123.781 108.781L122.343 107.343C120.843 105.843 118.808 105 116.686 105H59.9039C56.1687 105 52.6324 103.317 50.2771 100.418C48.4806 98.2069 47.5 95.4449 47.5 92.5961V48.0735C47.5 43.8908 50.8908 40.5 55.0735 40.5C57.8081 40.5 60.3303 41.9742 61.6723 44.3569L66.7013 53.286C74.575 67.2658 94.4738 67.9015 103.224 54.4527L107.667 47.6234C109.685 44.5215 113.371 42.9391 117.01 43.613C121.351 44.4168 124.5 48.2029 124.5 52.6173V88.7219C124.5 92.4359 128.49 94.7835 131.736 92.9798C132.866 92.3524 133.699 91.3022 134.054 90.0601L146.997 44.7612C148.561 39.2859 147.293 33.3912 143.614 29.0442C140.371 25.2109 135.604 23 130.582 23Z" fill="#005770"/>
</svg>
