<svg width="20" height="20" viewBox="0 0 20 20" fill="none" xmlns="http://www.w3.org/2000/svg">
<path d="M5.60065 13.8666C5.81282 13.8047 6.04089 13.8297 6.23468 13.9359C6.42847 14.0422 6.5721 14.2211 6.63398 14.4333C6.69587 14.6455 6.67093 14.8735 6.56466 15.0673C6.45839 15.2611 6.27949 15.4047 6.06732 15.4666C5.65065 15.5883 5.35065 15.7166 5.15815 15.8333C5.35648 15.9525 5.66982 16.0858 6.10482 16.21C7.06732 16.485 8.44482 16.6666 10.0007 16.6666C11.5565 16.6666 12.934 16.485 13.8965 16.21C14.3323 16.0858 14.6448 15.9525 14.8432 15.8333C14.6515 15.7166 14.3515 15.5883 13.9348 15.4666C13.726 15.402 13.5509 15.2579 13.4473 15.0654C13.3437 14.8729 13.3199 14.6475 13.381 14.4376C13.4421 14.2277 13.5832 14.0502 13.774 13.9434C13.9647 13.8366 14.1898 13.809 14.4007 13.8666C14.9573 14.0291 15.4673 14.2375 15.859 14.505C16.2215 14.7541 16.6673 15.1883 16.6673 15.8333C16.6673 16.4858 16.2107 16.9233 15.8423 17.1725C15.444 17.4408 14.9232 17.65 14.354 17.8125C13.2057 18.1416 11.6673 18.3333 10.0007 18.3333C8.33398 18.3333 6.79565 18.1416 5.64732 17.8125C5.07815 17.65 4.55732 17.4408 4.15898 17.1725C3.79065 16.9225 3.33398 16.4858 3.33398 15.8333C3.33398 15.1883 3.77982 14.7541 4.14232 14.505C4.53398 14.2375 5.04398 14.0291 5.60065 13.8666ZM10.0007 1.66663C11.6583 1.66663 13.248 2.32511 14.4201 3.49721C15.5922 4.66931 16.2506 6.25902 16.2506 7.91663C16.2506 10.0566 15.084 11.7966 13.8756 13.0333C13.3953 13.5199 12.8791 13.9698 12.3315 14.3791C11.8365 14.7508 10.7048 15.4475 10.7048 15.4475C10.4902 15.5695 10.2475 15.6336 10.0007 15.6336C9.75377 15.6336 9.51112 15.5695 9.29648 15.4475C8.73486 15.1218 8.1918 14.7651 7.66982 14.3791C7.12135 13.9708 6.6051 13.5208 6.12565 13.0333C4.91732 11.7966 3.75065 10.0566 3.75065 7.91663C3.75065 6.25902 4.40913 4.66931 5.58123 3.49721C6.75334 2.32511 8.34305 1.66663 10.0007 1.66663ZM10.0007 3.33329C8.78508 3.33329 7.61929 3.81618 6.75974 4.67572C5.9002 5.53526 5.41732 6.70105 5.41732 7.91663C5.41732 9.42996 6.24732 10.7733 7.31732 11.8666C8.12232 12.69 9.00898 13.3166 9.62315 13.7016L10.0007 13.93L10.3782 13.7016C10.9915 13.3166 11.879 12.69 12.684 11.8675C13.754 10.7733 14.584 9.43079 14.584 7.91663C14.584 6.70105 14.1011 5.53526 13.2416 4.67572C12.382 3.81618 11.2162 3.33329 10.0007 3.33329ZM10.0007 5.41663C10.329 5.41663 10.654 5.48129 10.9574 5.60693C11.2607 5.73256 11.5363 5.91671 11.7684 6.14886C12.0006 6.381 12.1847 6.6566 12.3103 6.95992C12.436 7.26323 12.5007 7.58832 12.5007 7.91663C12.5007 8.24493 12.436 8.57002 12.3103 8.87333C12.1847 9.17665 12.0006 9.45225 11.7684 9.68439C11.5363 9.91654 11.2607 10.1007 10.9574 10.2263C10.654 10.352 10.329 10.4166 10.0007 10.4166C9.33761 10.4166 8.70172 10.1532 8.23288 9.68439C7.76404 9.21555 7.50065 8.57967 7.50065 7.91663C7.50065 7.25358 7.76404 6.6177 8.23288 6.14886C8.70172 5.68002 9.33761 5.41663 10.0007 5.41663ZM10.0007 7.08329C9.77964 7.08329 9.56768 7.17109 9.4114 7.32737C9.25511 7.48365 9.16732 7.69561 9.16732 7.91663C9.16732 8.13764 9.25511 8.3496 9.4114 8.50588C9.56768 8.66216 9.77964 8.74996 10.0007 8.74996C10.2217 8.74996 10.4336 8.66216 10.5899 8.50588C10.7462 8.3496 10.834 8.13764 10.834 7.91663C10.834 7.69561 10.7462 7.48365 10.5899 7.32737C10.4336 7.17109 10.2217 7.08329 10.0007 7.08329Z" fill="black"/>
</svg>
