<svg width="33" height="32" viewBox="0 0 33 32" fill="none" xmlns="http://www.w3.org/2000/svg">
<path d="M9.0716 3.2173C9.2397 3.01667 9.32244 2.75813 9.30205 2.49718C9.28166 2.23623 9.15978 1.99368 8.96256 1.82159C8.76533 1.6495 8.5085 1.5616 8.2472 1.57675C7.98589 1.59191 7.74094 1.70891 7.56493 1.90264L5.84227 3.87597C4.86544 4.99539 4.31325 6.4226 4.28227 7.90797L4.20627 11.5333C4.20355 11.6646 4.22673 11.7952 4.27448 11.9176C4.32223 12.0399 4.39361 12.1517 4.48455 12.2465C4.57549 12.3412 4.6842 12.4172 4.80449 12.4699C4.92478 12.5227 5.05428 12.5513 5.1856 12.554C5.31692 12.5567 5.44749 12.5335 5.56986 12.4858C5.69222 12.438 5.80398 12.3666 5.89876 12.2757C5.99354 12.1848 6.06948 12.076 6.12224 11.9557C6.175 11.8355 6.20355 11.706 6.20627 11.5746L6.28094 7.95064C6.30233 6.93427 6.68037 5.95778 7.34894 5.19197L9.0716 3.2173Z" fill="black"/>
<path fill-rule="evenodd" clip-rule="evenodd" d="M8.81561 10.2666C8.90515 8.84014 9.53497 7.5014 10.5768 6.52294C11.6187 5.54448 12.9943 4.99987 14.4236 4.99996H15.1663V3.99996C15.1663 3.64634 15.3068 3.3072 15.5568 3.05715C15.8068 2.8071 16.146 2.66663 16.4996 2.66663C16.8532 2.66663 17.1924 2.8071 17.4424 3.05715C17.6925 3.3072 17.8329 3.64634 17.8329 3.99996V4.99996H18.5756C20.0049 4.99987 21.3805 5.54448 22.4224 6.52294C23.4643 7.5014 24.0941 8.84014 24.1836 10.2666L24.4783 14.9786C24.5922 16.7749 25.1953 18.5058 26.2223 19.984C26.4348 20.2894 26.5646 20.6446 26.5992 21.015C26.6337 21.3855 26.5718 21.7586 26.4195 22.098C26.2671 22.4375 26.0295 22.7317 25.7298 22.9522C25.43 23.1726 25.0784 23.3117 24.7089 23.356L20.1663 23.9V25.3333C20.1663 26.3058 19.78 27.2384 19.0923 27.926C18.4047 28.6137 17.4721 29 16.4996 29C15.5271 29 14.5945 28.6137 13.9069 27.926C13.2192 27.2384 12.8329 26.3058 12.8329 25.3333V23.9L8.29027 23.3546C7.92107 23.3102 7.56962 23.1711 7.27007 22.9508C6.97052 22.7304 6.73305 22.4363 6.58074 22.0971C6.42843 21.7579 6.36646 21.385 6.40084 21.0147C6.43521 20.6444 6.56478 20.2894 6.77694 19.984C7.80393 18.5058 8.40703 16.7749 8.52094 14.9786L8.81561 10.2666ZM14.4236 6.99996C13.503 6.99985 12.617 7.35059 11.946 7.98077C11.2749 8.61095 10.8693 9.4732 10.8116 10.392L10.5183 15.104C10.3812 17.265 9.65542 19.3472 8.41961 21.1253C8.40423 21.1474 8.39483 21.1731 8.39232 21.1999C8.38981 21.2267 8.39428 21.2536 8.40528 21.2782C8.41629 21.3028 8.43346 21.3241 8.45512 21.34C8.47679 21.356 8.50222 21.3661 8.52894 21.3693L13.5116 21.968C15.4969 22.2053 17.5023 22.2053 19.4876 21.968L24.4703 21.3693C24.497 21.3661 24.5224 21.356 24.5441 21.34C24.5658 21.3241 24.5829 21.3028 24.5939 21.2782C24.6049 21.2536 24.6094 21.2267 24.6069 21.1999C24.6044 21.1731 24.595 21.1474 24.5796 21.1253C23.3443 19.3471 22.619 17.2648 22.4823 15.104L22.1876 10.392C22.1299 9.4732 21.7243 8.61095 21.0532 7.98077C20.3822 7.35059 19.4962 6.99985 18.5756 6.99996H14.4236ZM16.4996 27C15.5796 27 14.8329 26.2533 14.8329 25.3333V24.3333H18.1663V25.3333C18.1663 26.2533 17.4196 27 16.4996 27Z" fill="black"/>
<path d="M24.024 1.80669C23.8243 1.98105 23.702 2.22761 23.684 2.49214C23.6659 2.75668 23.7537 3.01754 23.928 3.21735L25.6507 5.19069C26.3191 5.95704 26.6966 6.93403 26.7174 7.95069L26.7934 11.5734C26.7988 11.8386 26.9095 12.0907 27.1009 12.2744C27.2923 12.4581 27.5488 12.5582 27.814 12.5527C28.0792 12.5472 28.3314 12.4366 28.5151 12.2452C28.6987 12.0538 28.7988 11.7972 28.7934 11.532L28.7174 7.90802C28.6864 6.42265 28.1342 4.99544 27.1574 3.87602L25.4347 1.90269C25.2603 1.70294 25.0138 1.58061 24.7492 1.56261C24.4847 1.54461 24.2238 1.6324 24.024 1.80669Z" fill="black"/>
</svg>
