<svg width="24" height="24" viewBox="0 0 24 24" fill="none" xmlns="http://www.w3.org/2000/svg">
<path d="M12 21L20.131 16.792C20.447 16.628 20.605 16.547 20.72 16.426C20.8219 16.3198 20.899 16.1924 20.946 16.053C21 15.894 21 15.717 21 15.361V7.533M12 21L3.869 16.792C3.553 16.628 3.395 16.547 3.28 16.426C3.17814 16.3198 3.10097 16.1924 3.054 16.053C3 15.894 3 15.716 3 15.359V7.533M12 21V11.937M21 7.533L12 11.937M21 7.533L16.5 5.203M3 7.533L11.269 3.254C11.537 3.116 11.67 3.046 11.811 3.019C11.9359 2.99497 12.0641 2.99497 12.189 3.019C12.329 3.046 12.463 3.116 12.73 3.254L16.5 5.203M3 7.533L7.5 9.736M12 11.937L7.5 9.735M16.5 5.203L7.5 9.735M7.5 9.735V11.937" stroke="white" stroke-opacity="0.6" stroke-width="1.5" stroke-linecap="round" stroke-linejoin="round"/>
</svg>
