<svg width="14" height="14" viewBox="0 0 14 14" fill="none" xmlns="http://www.w3.org/2000/svg">
<path d="M7 12.3333V6.49998M7 6.49998L1.91917 3.58332M7 6.49998L12.0808 3.58332M4.375 1.99082L9.625 4.99498M6.41667 12.1758C6.59402 12.2782 6.79521 12.3321 7 12.3321C7.20479 12.3321 7.40598 12.2782 7.58333 12.1758L11.6667 9.84248C11.8438 9.74019 11.991 9.5931 12.0934 9.41597C12.1958 9.23884 12.2498 9.03791 12.25 8.83332V4.16665C12.2498 3.96206 12.1958 3.76112 12.0934 3.584C11.991 3.40687 11.8438 3.25978 11.6667 3.15748L7.58333 0.82415C7.40598 0.721754 7.20479 0.667847 7 0.667847C6.79521 0.667847 6.59402 0.721754 6.41667 0.82415L2.33333 3.15748C2.15615 3.25978 2.00899 3.40687 1.9066 3.584C1.80422 3.76112 1.75021 3.96206 1.75 4.16665V8.83332C1.75021 9.03791 1.80422 9.23884 1.9066 9.41597C2.00899 9.5931 2.15615 9.74019 2.33333 9.84248L6.41667 12.1758Z" stroke="white" stroke-linecap="round" stroke-linejoin="round"/>
</svg>
