<svg width="14" height="15" viewBox="0 0 14 15" fill="none" xmlns="http://www.w3.org/2000/svg">
<path d="M4.08333 6.33335V4.58335C4.08333 3.80981 4.39062 3.06794 4.93761 2.52096C5.48459 1.97398 6.22645 1.66669 7 1.66669C7.77355 1.66669 8.51541 1.97398 9.06239 2.52096C9.60938 3.06794 9.91667 3.80981 9.91667 4.58335V6.33335M7.58333 9.83335C7.58333 10.1555 7.32217 10.4167 7 10.4167C6.67783 10.4167 6.41667 10.1555 6.41667 9.83335C6.41667 9.51119 6.67783 9.25002 7 9.25002C7.32217 9.25002 7.58333 9.51119 7.58333 9.83335ZM2.91667 6.33335H11.0833C11.7277 6.33335 12.25 6.85569 12.25 7.50002V12.1667C12.25 12.811 11.7277 13.3334 11.0833 13.3334H2.91667C2.27233 13.3334 1.75 12.811 1.75 12.1667V7.50002C1.75 6.85569 2.27233 6.33335 2.91667 6.33335Z" stroke="white" stroke-linecap="round" stroke-linejoin="round"/>
</svg>
