<svg width="12" height="13" viewBox="0 0 12 13" fill="none" xmlns="http://www.w3.org/2000/svg">
<path d="M5.76242 1.64745C5.78434 1.60318 5.81818 1.56591 5.86015 1.53986C5.90212 1.51381 5.95053 1.5 5.99992 1.5C6.04932 1.5 6.09773 1.51381 6.1397 1.53986C6.18166 1.56591 6.21551 1.60318 6.23742 1.64745L7.39242 3.98695C7.46851 4.14093 7.58083 4.27415 7.71974 4.37517C7.85864 4.4762 8.01999 4.542 8.18992 4.56695L10.7729 4.94495C10.8219 4.95204 10.8678 4.97268 10.9057 5.00455C10.9435 5.03641 10.9716 5.07822 10.9869 5.12525C11.0022 5.17228 11.0041 5.22265 10.9922 5.27066C10.9804 5.31868 10.9553 5.36242 10.9199 5.39695L9.05192 7.21595C8.92873 7.336 8.83656 7.48419 8.78334 7.64776C8.73012 7.81133 8.71745 7.98539 8.74642 8.15495L9.18742 10.7249C9.19606 10.7739 9.19078 10.8242 9.17217 10.8703C9.15357 10.9163 9.12239 10.9563 9.0822 10.9854C9.042 11.0146 8.99441 11.0319 8.94486 11.0354C8.8953 11.0388 8.84577 11.0283 8.80192 11.0049L6.49292 9.79095C6.34078 9.71106 6.17151 9.66932 5.99967 9.66932C5.82783 9.66932 5.65857 9.71106 5.50642 9.79095L3.19792 11.0049C3.15409 11.0282 3.10462 11.0386 3.05515 11.0351C3.00568 11.0316 2.95818 11.0142 2.91807 10.9851C2.87796 10.9559 2.84684 10.916 2.82825 10.8701C2.80966 10.8241 2.80435 10.7738 2.81292 10.7249L3.25342 8.15545C3.28252 7.98581 3.26992 7.81165 3.21669 7.64797C3.16347 7.48429 3.07123 7.33602 2.94792 7.21595L1.07992 5.39745C1.04422 5.36296 1.01892 5.31914 1.0069 5.27098C0.994889 5.22282 0.996642 5.17226 1.01196 5.12504C1.02728 5.07783 1.05556 5.03587 1.09356 5.00394C1.13157 4.97201 1.17778 4.9514 1.22692 4.94445L3.80942 4.56695C3.97955 4.5422 4.14112 4.47648 4.28022 4.37544C4.41931 4.27441 4.53178 4.14108 4.60792 3.98695L5.76242 1.64745Z" fill="#FCD700"/>
</svg>
