<svg width="24" height="24" viewBox="0 0 24 24" fill="none" xmlns="http://www.w3.org/2000/svg">
<path d="M18.569 18.285V19.816H3.919C3.76575 19.8162 3.61394 19.7863 3.47226 19.7279C3.33057 19.6695 3.20177 19.5838 3.09322 19.4756C2.98467 19.3674 2.89849 19.2389 2.8396 19.0974C2.78071 18.9559 2.75026 18.8042 2.75 18.651V7.34796H4.278V18.285H18.569ZM6.0565 5.34896C6.05703 5.03954 6.18042 4.743 6.39954 4.52453C6.61867 4.30606 6.91558 4.18356 7.225 4.18396H10.6215C10.9465 4.18396 11.263 4.28496 11.5275 4.47346L13.4415 5.83596C13.7065 6.02446 14.023 6.12596 14.3475 6.12546H20.0815C20.3909 6.12506 20.6878 6.24756 20.907 6.46603C21.1261 6.6845 21.2495 6.98104 21.25 7.29046V15.056C21.2495 15.3654 21.1261 15.6619 20.907 15.8804C20.6878 16.0989 20.3909 16.2214 20.0815 16.221H7.225C6.91558 16.2214 6.61867 16.0989 6.39954 15.8804C6.18042 15.6619 6.05703 15.3654 6.0565 15.056V5.34896Z" stroke="white" stroke-opacity="0.6" stroke-linecap="round" stroke-linejoin="round"/>
</svg>
