<svg width="164" height="164" viewBox="0 0 164 164" fill="none" xmlns="http://www.w3.org/2000/svg">
<path fill-rule="evenodd" clip-rule="evenodd" d="M81.9998 9.00961e-10C92.7682 -5.04761e-05 103.431 2.1209 113.38 6.24175C123.329 10.3626 132.368 16.4027 139.983 24.0171C147.597 31.6314 153.637 40.6711 157.758 50.6198C161.879 60.5685 164 71.2314 164 81.9998C164 127.287 127.287 164 81.9998 164C36.7128 164 0 127.287 0 81.9998C0 36.7128 36.7128 9.00961e-10 81.9998 9.00961e-10ZM90.2001 90.2001H73.7999C53.4992 90.2001 36.0705 102.495 28.5533 120.046C40.4474 136.724 59.9536 147.6 81.9998 147.6C104.046 147.6 123.552 136.724 135.447 120.045C127.93 102.495 110.501 90.2001 90.2001 90.2001ZM81.9998 24.6C68.4137 24.6 57.3998 35.6139 57.3998 49.2C57.3998 62.7861 68.4137 73.7999 81.9998 73.7999C95.5859 73.7999 106.6 62.7861 106.6 49.2C106.6 35.6139 95.5863 24.6 81.9998 24.6Z" fill="black" fill-opacity="0.8"/>
</svg>
