<svg width="36" height="36" viewBox="0 0 36 36" fill="none" xmlns="http://www.w3.org/2000/svg">
<rect width="36" height="36" rx="4" fill="#005770"/>
<path d="M12.3342 21.3035C9.22192 18.199 9.22192 13.1045 12.3342 10M14.6485 12.2289C13.8914 13.0113 13.4176 14.0233 13.3019 15.1046C13.1863 16.1859 13.4355 17.2748 14.0101 18.199M18.0002 17.2438C18.8817 17.2438 19.5963 16.531 19.5963 15.6517C19.5963 14.7725 18.8817 14.0597 18.0002 14.0597C17.1187 14.0597 16.4042 14.7725 16.4042 15.6517C16.4042 16.531 17.1187 17.2438 18.0002 17.2438ZM18.0002 17.2438L14.8081 26M18.0002 17.2438L21.1923 26M21.3519 12.3085C22.948 13.9005 23.1555 16.3761 21.9904 18.2547M23.6662 10C24.406 10.7364 24.9929 11.6112 25.3934 12.5741C25.7939 13.5371 26 14.5694 26 15.6119C26 16.6545 25.7939 17.6868 25.3934 18.6497C24.9929 19.6127 24.406 20.4875 23.6662 21.2239M16.0052 22.8159H19.9953" stroke="white" stroke-width="1.5" stroke-linecap="round" stroke-linejoin="round"/>
</svg>
