<svg width="16" height="16" viewBox="0 0 16 16" fill="none" xmlns="http://www.w3.org/2000/svg">
<path d="M5.59968 11.3334L7.99968 8.93337L10.3997 11.3334L11.333 10.4L8.93301 8.00004L11.333 5.60004L10.3997 4.66671L7.99968 7.06671L5.59968 4.66671L4.66634 5.60004L7.06634 8.00004L4.66634 10.4L5.59968 11.3334ZM7.99968 14.6667C7.07745 14.6667 6.21079 14.4916 5.39968 14.1414C4.58856 13.7912 3.88301 13.3163 3.28301 12.7167C2.68301 12.1172 2.20812 11.4116 1.85834 10.6C1.50856 9.78848 1.33345 8.92182 1.33301 8.00004C1.33256 7.07826 1.50768 6.2116 1.85834 5.40004C2.20901 4.58849 2.6839 3.88293 3.28301 3.28337C3.88212 2.68382 4.58768 2.20893 5.39968 1.85871C6.21168 1.50849 7.07834 1.33337 7.99968 1.33337C8.92101 1.33337 9.78767 1.50849 10.5997 1.85871C11.4117 2.20893 12.1172 2.68382 12.7163 3.28337C13.3155 3.88293 13.7906 4.58849 14.1417 5.40004C14.4928 6.2116 14.6677 7.07826 14.6663 8.00004C14.665 8.92182 14.4899 9.78848 14.141 10.6C13.7921 11.4116 13.3172 12.1172 12.7163 12.7167C12.1155 13.3163 11.4099 13.7914 10.5997 14.142C9.78945 14.4927 8.92279 14.6676 7.99968 14.6667Z" fill="#A62020"/>
</svg>
