<svg width="18" height="17" viewBox="0 0 18 17" fill="none" xmlns="http://www.w3.org/2000/svg">
<path d="M15.546 4.94434V12.4999C15.546 14.709 13.7551 16.4999 11.546 16.4999H6.45508C4.24594 16.4999 2.45508 14.709 2.45508 12.4999V4.94434" stroke="#1A7709" stroke-linecap="round" stroke-linejoin="round"/>
<path d="M14.7778 0.5H3.22222C1.99492 0.5 1 1.49492 1 2.72222C1 3.94952 1.99492 4.94444 3.22222 4.94444H14.7778C16.0051 4.94444 17 3.94952 17 2.72222C17 1.49492 16.0051 0.5 14.7778 0.5Z" stroke="#1A7709" stroke-linecap="round" stroke-linejoin="round"/>
<g clip-path="url(#clip0_1064_5181)">
<path d="M7.625 8.70459L6.75 9.45459L7.625 10.3296" stroke="#1A7709" stroke-linecap="round" stroke-linejoin="round"/>
<path d="M6.75 9.45459H9.62425C10.4846 9.45459 11.2153 10.1571 11.2488 11.0171C11.2843 11.9258 10.5334 12.7046 9.62425 12.7046H7.49975" stroke="#1A7709" stroke-linecap="round" stroke-linejoin="round"/>
</g>
<defs>
<clipPath id="clip0_1064_5181">
<rect width="6" height="6" fill="white" transform="translate(6 7.5)"/>
</clipPath>
</defs>
</svg>
