<svg width="30" height="28" viewBox="0 0 30 28" fill="none" xmlns="http://www.w3.org/2000/svg">
<path d="M10.8617 17.4998L15 15.0305L19.1383 17.4998L18.0383 12.8678L21.6983 9.77877L16.8883 9.35902L15 5.014L13.1117 9.35902L8.30167 9.77877L11.9617 12.8678L10.8617 17.4998ZM0 28V2.64965C0 1.89432 0.257222 1.26416 0.771667 0.75915C1.28611 0.254143 1.92611 0.00109309 2.69167 0H27.3083C28.075 0 28.715 0.25305 29.2283 0.75915C29.7417 1.26525 29.9989 1.89542 30 2.64965V20.3068C30 21.0611 29.7428 21.6912 29.2283 22.1973C28.7139 22.7034 28.0739 22.9559 27.3083 22.9549H5.12833L0 28ZM4.41667 21.3152H27.3083C27.5639 21.3152 27.7989 21.2103 28.0133 21.0004C28.2278 20.7905 28.3344 20.5594 28.3333 20.3068V2.64801C28.3333 2.3966 28.2267 2.16541 28.0133 1.95444C27.8 1.74348 27.565 1.63854 27.3083 1.63963H2.69167C2.43611 1.63963 2.20111 1.74457 1.98667 1.95444C1.77222 2.16431 1.66556 2.3955 1.66667 2.64801V24.0124L4.41667 21.3152Z" fill="white"/>
</svg>
