<svg width="24" height="24" viewBox="0 0 24 24" fill="none" xmlns="http://www.w3.org/2000/svg">
<path d="M14 3.269C14 2.568 13.432 2 12.731 2H11.27C10.568 2 10 2.568 10 3.269C10 3.847 9.604 4.343 9.065 4.555C8.97967 4.58967 8.89533 4.625 8.812 4.661C8.281 4.891 7.65 4.821 7.24 4.412C7.00191 4.17446 6.67932 4.04105 6.343 4.04105C6.00668 4.04105 5.68409 4.17446 5.446 4.412L4.412 5.446C4.17446 5.68409 4.04105 6.00668 4.04105 6.343C4.04105 6.67932 4.17446 7.00191 4.412 7.24C4.822 7.65 4.892 8.28 4.66 8.812C4.62356 8.89573 4.58855 8.98007 4.555 9.065C4.343 9.604 3.847 10 3.269 10C2.568 10 2 10.568 2 11.269V12.731C2 13.432 2.568 14 3.269 14C3.847 14 4.343 14.396 4.555 14.935C4.58967 15.0203 4.62467 15.1047 4.66 15.188C4.891 15.719 4.821 16.35 4.412 16.76C4.17446 16.9981 4.04105 17.3207 4.04105 17.657C4.04105 17.9933 4.17446 18.3159 4.412 18.554L5.446 19.588C5.68409 19.8255 6.00668 19.959 6.343 19.959C6.67932 19.959 7.00191 19.8255 7.24 19.588C7.65 19.178 8.28 19.108 8.812 19.339C8.89533 19.3757 8.97967 19.411 9.065 19.445C9.604 19.657 10 20.153 10 20.731C10 21.432 10.568 22 11.269 22H12.731C13.432 22 14 21.432 14 20.731C14 20.153 14.396 19.657 14.935 19.444C15.0203 19.4107 15.1047 19.376 15.188 19.34C15.719 19.108 16.35 19.179 16.759 19.588C16.9971 19.8258 17.3199 19.9594 17.6565 19.9594C17.9931 19.9594 18.3159 19.8258 18.554 19.588L19.588 18.554C19.8255 18.3159 19.959 17.9933 19.959 17.657C19.959 17.3207 19.8255 16.9981 19.588 16.76C19.178 16.35 19.108 15.72 19.339 15.188C19.3757 15.1047 19.411 15.0203 19.445 14.935C19.657 14.396 20.153 14 20.731 14C21.432 14 22 13.432 22 12.731V11.27C22 10.569 21.432 10.001 20.731 10.001C20.153 10.001 19.657 9.605 19.444 9.066C19.4104 8.98107 19.3754 8.89673 19.339 8.813C19.109 8.282 19.179 7.651 19.588 7.241C19.8255 7.00291 19.959 6.68032 19.959 6.344C19.959 6.00768 19.8255 5.68509 19.588 5.447L18.554 4.413C18.3159 4.17546 17.9933 4.04205 17.657 4.04205C17.3207 4.04205 16.9981 4.17546 16.76 4.413C16.35 4.823 15.72 4.893 15.188 4.662C15.1043 4.62522 15.0199 4.58989 14.935 4.556C14.396 4.343 14 3.846 14 3.269Z" stroke="white" stroke-opacity="0.6" stroke-width="2"/>
<path d="M16 12C16 13.0609 15.5786 14.0783 14.8284 14.8284C14.0783 15.5786 13.0609 16 12 16C10.9391 16 9.92172 15.5786 9.17157 14.8284C8.42143 14.0783 8 13.0609 8 12C8 10.9391 8.42143 9.92172 9.17157 9.17157C9.92172 8.42143 10.9391 8 12 8C13.0609 8 14.0783 8.42143 14.8284 9.17157C15.5786 9.92172 16 10.9391 16 12Z" stroke="white" stroke-opacity="0.6" stroke-width="2"/>
</svg>
