<svg width="14" height="17" viewBox="0 0 14 17" fill="none" xmlns="http://www.w3.org/2000/svg">
<path d="M13.6762 1.40154C13.5746 1.32163 13.4558 1.26488 13.3286 1.23545C13.2014 1.20602 13.0691 1.20467 12.9412 1.23149C12.0063 1.4219 11.041 1.42433 10.1051 1.23862C9.16906 1.05291 8.28209 0.682993 7.49875 0.15165C7.35228 0.0529104 7.17827 0 7 0C6.82173 0 6.64772 0.0529104 6.50125 0.15165C5.71791 0.682993 4.83094 1.05291 3.89495 1.23862C2.95895 1.42433 1.99375 1.4219 1.05875 1.23149C0.930951 1.20467 0.798587 1.20602 0.671393 1.23545C0.544199 1.26488 0.425408 1.32163 0.323755 1.40154C0.222237 1.48157 0.140461 1.58268 0.0844358 1.69745C0.0284108 1.81221 -0.000439416 1.93772 5.0588e-06 2.06475V8.39923C-0.000772847 9.6183 0.298181 10.8199 0.871972 11.904C1.44576 12.9881 2.27779 13.9233 3.29875 14.6317L6.4925 16.8424C6.64069 16.9449 6.81808 17 7 17C7.18192 17 7.35931 16.9449 7.5075 16.8424L10.7012 14.6317C11.7222 13.9233 12.5542 12.9881 13.128 11.904C13.7018 10.8199 14.0008 9.6183 14 8.39923V2.06475C14.0004 1.93772 13.9716 1.81221 13.9156 1.69745C13.8595 1.58268 13.7778 1.48157 13.6762 1.40154ZM12.25 8.39923C12.2507 9.34707 12.0184 10.2814 11.5724 11.1244C11.1265 11.9673 10.4798 12.6946 9.68625 13.2457L7 15.1078L4.31375 13.2457C3.52016 12.6946 2.87349 11.9673 2.42756 11.1244C1.98163 10.2814 1.74933 9.34707 1.75 8.39923V3.04255C3.58438 3.19512 5.42154 2.78154 7 1.86068C8.57846 2.78154 10.4156 3.19512 12.25 3.04255V8.39923ZM8.3475 6.45212L5.99375 8.74784L5.215 7.9826C5.05024 7.82249 4.82677 7.73254 4.59375 7.73254C4.36074 7.73254 4.13727 7.82249 3.9725 7.9826C3.80774 8.14271 3.71517 8.35986 3.71517 8.58629C3.71517 8.81272 3.80774 9.02987 3.9725 9.18998L5.3725 10.5504C5.45384 10.6301 5.55062 10.6934 5.65725 10.7365C5.76387 10.7797 5.87824 10.8019 5.99375 10.8019C6.10926 10.8019 6.22363 10.7797 6.33026 10.7365C6.43688 10.6934 6.53366 10.6301 6.615 10.5504L9.625 7.651C9.78976 7.49089 9.88233 7.27374 9.88233 7.04731C9.88233 6.82088 9.78976 6.60373 9.625 6.44362C9.46023 6.28351 9.23676 6.19356 9.00375 6.19356C8.77073 6.19356 8.54727 6.28351 8.3825 6.44362L8.3475 6.45212Z" fill="#474545"/>
</svg>
