<svg width="16" height="15" viewBox="0 0 16 15" fill="none" xmlns="http://www.w3.org/2000/svg">
<path d="M8.54024 0.328774L10.335 4.34803C10.4723 4.65569 10.7697 4.86648 11.111 4.89659L15.4833 5.28149C15.978 5.35219 16.1753 5.94788 15.8166 6.29089L12.5231 9.00749C12.2564 9.22744 12.1351 9.57306 12.2084 9.90691L13.1658 14.3071C13.2498 14.7902 12.7338 15.1594 12.2911 14.9303L8.4749 12.7361C8.18155 12.5672 7.81887 12.5672 7.52552 12.7361L3.70932 14.929C3.26796 15.1568 2.7506 14.7889 2.8346 14.3058L3.79199 9.9056C3.86399 9.57176 3.74398 9.22613 3.4773 9.00618L0.182461 6.2922C-0.174891 5.9505 0.0224524 5.3535 0.515812 5.2828L4.88805 4.8979C5.2294 4.86778 5.52675 4.657 5.66409 4.34934L7.45885 0.330083C7.68153 -0.109809 8.31889 -0.109809 8.54024 0.328774Z" fill="#FFD933"/>
<path d="M8.40992 4.58898L8.10591 1.62756C8.09391 1.4626 8.05924 1.17981 8.32858 1.17981C8.54193 1.17981 8.65794 1.61577 8.65794 1.61577L9.56998 3.99329C9.914 4.89795 9.77266 5.20823 9.44064 5.39152C9.05929 5.60099 8.49659 5.43734 8.40992 4.58898Z" fill="#FFFF8D"/>
<path d="M12.1702 8.74433L14.7864 6.73993C14.9157 6.63389 15.1491 6.465 14.9624 6.27255C14.8144 6.12068 14.4144 6.33932 14.4144 6.33932L12.1249 7.21779C11.4422 7.44952 10.9889 7.79253 10.9489 8.22457C10.8968 8.80062 11.4235 9.24444 12.1702 8.74433Z" fill="#F4B400"/>
</svg>
