<svg width="24" height="24" viewBox="0 0 24 24" fill="none" xmlns="http://www.w3.org/2000/svg">
<path d="M3.3471 21.5777H20.6532C22.7425 21.5777 23.8075 20.5328 23.8075 18.4637V7.94696C23.8075 5.87781 22.7425 4.84324 20.6532 4.84324H18.303C17.5195 4.84324 17.2787 4.68253 16.8265 4.18024L16.0127 3.27596C15.5207 2.72396 15.0085 2.42224 13.9637 2.42224H9.96595C8.93138 2.42224 8.41881 2.72396 7.91695 3.27596L7.1031 4.18024C6.66124 4.67224 6.4101 4.84324 5.62667 4.84324H3.34667C1.25738 4.84324 0.192383 5.87781 0.192383 7.94696V18.4637C0.192383 20.5328 1.25781 21.5777 3.3471 21.5777ZM3.37667 19.9602C2.38238 19.9602 1.80981 19.428 1.80981 18.3831V8.03738C1.80981 6.99253 2.38238 6.46024 3.37667 6.46024H6.02824C6.93253 6.46024 7.41467 6.28967 7.91695 5.72738L8.71024 4.84324C9.28281 4.20038 9.57424 4.03967 10.4682 4.03967H13.4614C14.3554 4.03967 14.6468 4.20038 15.2194 4.84324L16.0127 5.72696C16.515 6.28967 16.9971 6.46024 17.9014 6.46024H20.6232C21.6175 6.46024 22.1905 6.99253 22.1905 8.03738V18.3831C22.1905 19.428 21.618 19.9602 20.6232 19.9602H3.37667ZM11.9952 18.3634C12.7168 18.3654 13.4317 18.2246 14.0987 17.9491C14.7656 17.6736 15.3714 17.2688 15.8812 16.7581C16.391 16.2473 16.7946 15.6408 17.0689 14.9733C17.3432 14.3058 17.4826 13.5907 17.4792 12.8691C17.4792 9.8151 15.0484 7.37481 11.9948 7.37481C8.96138 7.37481 6.52067 9.8151 6.52067 12.8691C6.52067 15.9222 8.96138 18.3634 11.9948 18.3634M19.2167 10.4177C19.8998 10.4177 20.4621 9.86567 20.4621 9.18253C20.4621 8.85222 20.3309 8.53544 20.0973 8.30188C19.8638 8.06831 19.547 7.9371 19.2167 7.9371C18.8864 7.9371 18.5696 8.06831 18.336 8.30188C18.1025 8.53544 17.9712 8.85222 17.9712 9.18253C17.9712 9.86567 18.5335 10.4177 19.2167 10.4177ZM11.9952 16.8368C9.81553 16.8368 8.03781 15.069 8.03781 12.8691C8.03781 10.6692 9.80567 8.90181 11.9952 8.90181C12.5164 8.90119 13.0326 9.00338 13.5143 9.20253C13.9959 9.40168 14.4335 9.69388 14.8021 10.0624C15.1706 10.4309 15.4629 10.8685 15.6621 11.3501C15.8613 11.8317 15.9635 12.3479 15.963 12.8691C15.9636 13.3903 15.8614 13.9065 15.6622 14.3882C15.463 14.8699 15.1708 15.3075 14.8022 15.6761C14.4337 16.0446 13.996 16.3369 13.5144 16.5361C13.0327 16.7352 12.5165 16.8374 11.9952 16.8368Z" fill="black"/>
</svg>
