<svg width="16" height="16" viewBox="0 0 16 16" fill="none" xmlns="http://www.w3.org/2000/svg">
<g clip-path="url(#clip0_989_5062)">
<path d="M12.6002 2.85C11.9167 2.19961 11.5401 1.3645 11.5402 0.5H8.45016V10.8333C8.42682 11.3927 8.14368 11.9226 7.66046 12.3112C7.17725 12.6999 6.53175 12.917 5.86016 12.9167C4.44016 12.9167 3.26016 11.95 3.26016 10.75C3.26016 9.31667 4.92016 8.24167 6.63016 8.68333V6.05C3.18016 5.66667 0.160156 7.9 0.160156 10.75C0.160156 13.525 2.92016 15.5 5.85016 15.5C8.99016 15.5 11.5402 13.375 11.5402 10.75V5.50833C12.7932 6.25821 14.2975 6.66054 15.8402 6.65833V4.08333C15.8402 4.08333 13.9602 4.15833 12.6002 2.85Z" fill="black" fill-opacity="0.5"/>
</g>
<defs>
<clipPath id="clip0_989_5062">
<rect width="16" height="16" fill="white"/>
</clipPath>
</defs>
</svg>
