<svg width="20" height="20" viewBox="0 0 20 20" fill="none" xmlns="http://www.w3.org/2000/svg">
<g clip-path="url(#clip0_2464_7339)">
<g clip-path="url(#clip1_2464_7339)">
<path d="M15.7854 3.5625C14.9311 2.74951 14.4602 1.70562 14.4604 0.625H10.5979V13.5417C10.5687 14.2408 10.2148 14.9032 9.61074 15.3891C9.00672 15.8749 8.19985 16.1463 7.36035 16.1458C5.58535 16.1458 4.11035 14.9375 4.11035 13.4375C4.11035 11.6458 6.18535 10.3021 8.32285 10.8542V7.5625C4.01035 7.08333 0.235352 9.875 0.235352 13.4375C0.235352 16.9062 3.68535 19.375 7.34785 19.375C11.2729 19.375 14.4604 16.7188 14.4604 13.4375V6.88542C16.0266 7.82276 17.9071 8.32567 19.8354 8.32292V5.10417C19.8354 5.10417 17.4854 5.19792 15.7854 3.5625Z" fill="black" fill-opacity="0.5"/>
</g>
</g>
<defs>
<clipPath id="clip0_2464_7339">
<rect width="20" height="20" fill="white"/>
</clipPath>
<clipPath id="clip1_2464_7339">
<rect width="20" height="20" fill="white" transform="translate(0.0351562)"/>
</clipPath>
</defs>
</svg>
