<svg width="9" height="12" viewBox="0 0 9 12" fill="none" xmlns="http://www.w3.org/2000/svg">
<path d="M4.33005 0C3.88802 0 3.4641 0.175595 3.15154 0.488155C2.83898 0.800716 2.66338 1.22464 2.66338 1.66667V1.744C2.00739 1.81 1.50072 1.90933 1.11939 2.01067C0.872616 2.07308 0.631367 2.15558 0.398052 2.25733C0.314595 2.29533 0.233153 2.33761 0.154052 2.384L0.148719 2.38667L0.146718 2.388C0.146718 2.388 0.145385 2.38933 0.330052 2.66667L0.145385 2.38933C0.0731637 2.43864 0.0232108 2.51435 0.00629618 2.60015C-0.0106184 2.68595 0.00686006 2.77496 0.0549631 2.84799C0.103066 2.92101 0.177941 2.97222 0.263446 2.99055C0.34895 3.00889 0.438235 2.99289 0.512052 2.946L0.514718 2.944L0.539385 2.93067C0.581722 2.90801 0.624861 2.88689 0.668718 2.86733C0.792718 2.812 0.994718 2.734 1.29072 2.65533C1.88405 2.49733 2.85472 2.33333 4.33072 2.33333C5.80539 2.33333 6.77605 2.49733 7.36938 2.65533C7.66538 2.73467 7.86805 2.812 7.99139 2.86733C8.04379 2.89067 8.09517 2.91625 8.14538 2.944L8.14805 2.946C8.22187 2.99289 8.31115 3.00889 8.39666 2.99055C8.48216 2.97222 8.55704 2.92101 8.60514 2.84799C8.65324 2.77496 8.67072 2.68595 8.65381 2.60015C8.63689 2.51435 8.58694 2.43864 8.51472 2.38933L8.51338 2.388L8.51138 2.38667L8.50605 2.38333C8.48521 2.36969 8.46362 2.35723 8.44138 2.346C8.38273 2.31444 8.32291 2.28508 8.26205 2.258C8.02874 2.15624 7.78749 2.07375 7.54072 2.01133C7.03382 1.8822 6.51757 1.79304 5.99672 1.74467V1.66667C5.99672 1.22464 5.82112 0.800716 5.50856 0.488155C5.196 0.175595 4.77208 0 4.33005 0ZM5.33005 1.69333C5.02338 1.67556 4.69005 1.66667 4.33005 1.66667C3.97005 1.66667 3.63672 1.67556 3.33005 1.69333V1.66667C3.33005 1.40145 3.43541 1.1471 3.62294 0.95956C3.81048 0.772023 4.06484 0.666667 4.33005 0.666667C4.59527 0.666667 4.84962 0.772023 5.03716 0.95956C5.22469 1.1471 5.33005 1.40145 5.33005 1.66667V1.69333ZM0.616718 3.67C0.704137 3.65763 0.792894 3.68044 0.863511 3.73343C0.934128 3.78643 0.980836 3.86527 0.993385 3.95267L1.66672 8.66333C1.72472 9.074 1.76672 9.36333 1.81672 9.59C1.86605 9.81133 1.91805 9.94667 1.98672 10.0533C2.12487 10.2686 2.32204 10.4397 2.55472 10.546C2.67005 10.5987 2.81139 10.6313 3.03805 10.6487C3.26872 10.6667 3.56138 10.6667 3.97605 10.6667H4.90538C5.33872 10.6667 5.64472 10.6667 5.88539 10.6473C6.12139 10.6293 6.26805 10.594 6.38539 10.538C6.62423 10.4247 6.82403 10.2431 6.95938 10.016C7.02605 9.904 7.07539 9.76133 7.11605 9.528C7.15805 9.29067 7.18672 8.986 7.22805 8.55467L7.66472 3.968C7.66888 3.9244 7.68158 3.88205 7.70211 3.84336C7.72264 3.80467 7.75058 3.7704 7.78435 3.74252C7.81812 3.71463 7.85705 3.69366 7.89892 3.68082C7.94079 3.66798 7.98479 3.66351 8.02839 3.66767C8.07198 3.67183 8.11434 3.68453 8.15303 3.70506C8.19171 3.72558 8.22598 3.75353 8.25387 3.7873C8.28176 3.82107 8.30272 3.86 8.31556 3.90187C8.32841 3.94374 8.33288 3.98774 8.32872 4.03133L7.89072 8.63133C7.85072 9.046 7.81938 9.37667 7.77272 9.64267C7.72538 9.916 7.65739 10.148 7.53272 10.358C7.32954 10.6985 7.02973 10.9709 6.67138 11.1407C6.45072 11.2453 6.21339 11.2907 5.93672 11.312C5.66739 11.3333 5.33538 11.3333 4.91872 11.3333H3.96338C3.56472 11.3333 3.24672 11.3333 2.98739 11.3133C2.72139 11.2933 2.49272 11.2507 2.27805 11.1527C1.92899 10.9931 1.63323 10.7364 1.42605 10.4133C1.29872 10.2147 1.22405 9.99467 1.16605 9.734C1.10243 9.41482 1.04995 9.09351 1.00872 8.77067L0.333385 4.04733C0.327163 4.004 0.32954 3.95986 0.340378 3.91744C0.351217 3.87502 0.370307 3.83515 0.396556 3.80011C0.422805 3.76507 0.455699 3.73555 0.493361 3.71322C0.531022 3.6909 0.57338 3.67621 0.616718 3.67Z" fill="black" fill-opacity="0.5"/>
</svg>
