<svg width="24" height="15" viewBox="0 0 24 15" fill="none" xmlns="http://www.w3.org/2000/svg">
<path d="M7.90873 14C9.03841 14 9.95419 13.1046 9.95419 12C9.95419 10.8954 9.03841 10 7.90873 10C6.77906 10 5.86328 10.8954 5.86328 12C5.86328 13.1046 6.77906 14 7.90873 14Z" stroke="#1A7709" stroke-miterlimit="1.5" stroke-linecap="round" stroke-linejoin="round"/>
<path d="M18.1372 14C19.267 14 20.1827 13.1046 20.1827 12C20.1827 10.8954 19.267 10 18.1372 10C17.0075 10 16.0918 10.8954 16.0918 12C16.0918 13.1046 17.0075 14 18.1372 14Z" stroke="#1A7709" stroke-miterlimit="1.5" stroke-linecap="round" stroke-linejoin="round"/>
<path d="M10.0057 12H15.0682V1.6C15.0682 1.26863 14.7935 1 14.4545 1H0.75" stroke="#1A7709" stroke-linecap="round"/>
<path d="M5.50515 12H3.40856C3.06966 12 2.79492 11.7314 2.79492 11.4V6.5" stroke="#1A7709" stroke-linecap="round"/>
<path d="M1.77344 4H5.86434" stroke="#1A7709" stroke-linecap="round" stroke-linejoin="round"/>
<path d="M15.0684 4H20.806C21.0484 4 21.2682 4.13964 21.3667 4.35632L23.1973 8.38361C23.2322 8.46041 23.2502 8.54341 23.2502 8.62731V11.4C23.2502 11.7314 22.9755 12 22.6365 12H20.6934" stroke="#1A7709" stroke-linecap="round"/>
<path d="M15.0684 12H16.0911" stroke="#1A7709" stroke-linecap="round"/>
</svg>
