<svg width="16" height="11" viewBox="0 0 16 11" fill="none" xmlns="http://www.w3.org/2000/svg">
<path d="M5.27184 10C6.02495 10 6.63547 9.38012 6.63547 8.61539C6.63547 7.85067 6.02495 7.23077 5.27184 7.23077C4.51872 7.23077 3.9082 7.85067 3.9082 8.61539C3.9082 9.38012 4.51872 10 5.27184 10Z" stroke="#474545" stroke-miterlimit="1.5" stroke-linecap="round" stroke-linejoin="round"/>
<path d="M12.0902 10C12.8433 10 13.4538 9.38012 13.4538 8.61539C13.4538 7.85067 12.8433 7.23077 12.0902 7.23077C11.3371 7.23077 10.7266 7.85067 10.7266 8.61539C10.7266 9.38012 11.3371 10 12.0902 10Z" stroke="#474545" stroke-miterlimit="1.5" stroke-linecap="round" stroke-linejoin="round"/>
<path d="M6.67045 8.6154H10.0454V1.41539C10.0454 1.18597 9.86231 1 9.63635 1H0.5" stroke="#474545" stroke-linecap="round"/>
<path d="M3.6701 8.61538H2.27237C2.04644 8.61538 1.86328 8.42942 1.86328 8.19999V4.80768" stroke="#474545" stroke-linecap="round"/>
<path d="M1.18164 3.07697H3.90891" stroke="#474545" stroke-linecap="round" stroke-linejoin="round"/>
<path d="M10.0449 3.07697H13.87C14.0316 3.07697 14.1782 3.17364 14.2438 3.32365L15.4642 6.11177C15.4875 6.16494 15.4995 6.2224 15.4995 6.28049V8.20005C15.4995 8.42948 15.3163 8.61544 15.0904 8.61544H13.7949" stroke="#474545" stroke-linecap="round"/>
<path d="M10.0449 8.61542H10.7267" stroke="#474545" stroke-linecap="round"/>
</svg>
