<svg width="104" height="104" viewBox="0 0 104 104" fill="none" xmlns="http://www.w3.org/2000/svg">
<path fill-rule="evenodd" clip-rule="evenodd" d="M54.5704 100.785L54.5227 100.793L54.2151 100.945L54.1284 100.962L54.0677 100.945L53.7601 100.793C53.7139 100.779 53.6792 100.786 53.6561 100.815L53.6387 100.858L53.5651 102.713L53.5867 102.8L53.6301 102.856L54.0807 103.177L54.1457 103.194L54.1977 103.177L54.6484 102.856L54.7004 102.787L54.7177 102.713L54.6441 100.863C54.6325 100.816 54.608 100.79 54.5704 100.785ZM55.7187 100.295L55.6624 100.304L54.8607 100.707L54.8174 100.75L54.8044 100.798L54.8824 102.661L54.9041 102.713L54.9387 102.743L55.8097 103.146C55.8646 103.161 55.9065 103.149 55.9354 103.112L55.9527 103.051L55.8054 100.39C55.791 100.338 55.7621 100.307 55.7187 100.295ZM52.6204 100.304C52.6013 100.292 52.5785 100.288 52.5567 100.293C52.5349 100.298 52.5158 100.311 52.5034 100.33L52.4774 100.39L52.3301 103.051C52.333 103.103 52.3575 103.138 52.4037 103.155L52.4687 103.146L53.3397 102.743L53.3831 102.709L53.4004 102.661L53.4741 100.798L53.4611 100.746L53.4177 100.702L52.6204 100.304Z" fill="black" fill-opacity="0.5"/>
<path fill-rule="evenodd" clip-rule="evenodd" d="M86.667 13C88.8535 12.9993 90.9594 13.8251 92.5627 15.3118C94.1659 16.7985 95.148 18.8363 95.312 21.0167L95.3337 21.6667V82.3333C95.3343 84.5198 94.5086 86.6258 93.0218 88.229C91.5351 89.8323 89.4973 90.8144 87.317 90.9783L86.667 91H17.3337C15.1472 91.0007 13.0412 90.1749 11.438 88.6882C9.8347 87.2015 8.85265 85.1637 8.68866 82.9833L8.66699 82.3333V21.6667C8.6663 19.4802 9.49209 17.3742 10.9788 15.771C12.4655 14.1677 14.5033 13.1857 16.6837 13.0217L17.3337 13H86.667ZM86.667 21.6667H17.3337V82.3333H86.667V21.6667ZM44.807 33.098L47.0517 34.0947L48.5163 34.788L50.1933 35.6113L52.0567 36.556L54.0933 37.6393L56.2903 38.8527L57.443 39.5113L59.6877 40.833L61.7417 42.0983L63.605 43.2813L65.2517 44.3777L67.3317 45.8077L68.909 46.9473L69.3207 47.2507C69.9894 47.7483 70.5326 48.3953 70.9068 49.1402C71.281 49.8851 71.4758 50.7071 71.4758 51.5407C71.4758 52.3742 71.281 53.1963 70.9068 53.9411C70.5326 54.686 69.9894 55.3331 69.3207 55.8307L67.921 56.849L66.0143 58.1837L64.4717 59.2193L62.7167 60.359L60.7537 61.5853L58.5913 62.8853L56.2773 64.2243L54.0717 65.4463L52.0307 66.5297L50.1673 67.483L48.4947 68.2977L45.7993 69.5457L44.8027 69.979C44.0375 70.3087 43.2059 70.4551 42.3741 70.4064C41.5423 70.3577 40.7335 70.1154 40.012 69.6986C39.2905 69.2819 38.6764 68.7024 38.2186 68.0062C37.7608 67.3101 37.4721 66.5166 37.3753 65.689L37.124 63.2407L36.9853 61.62L36.8033 58.7427L36.7037 56.5413L36.6387 54.1363L36.6213 52.8623L36.6127 51.5407C36.6127 50.6451 36.6213 49.7784 36.6387 48.9407L36.7037 46.5357L36.8033 44.3387L36.9203 42.3583L37.0503 40.6207L37.3753 37.3967C37.4715 36.5682 37.7599 35.7737 38.2177 35.0765C38.6754 34.3793 39.2898 33.7988 40.0117 33.3812C40.7337 32.9636 41.5432 32.7205 42.3758 32.6714C43.2084 32.6222 44.0409 32.7683 44.807 33.098ZM47.4547 43.9357L45.5653 42.991L45.4397 45.1013L45.3443 47.489L45.288 50.1323L45.2793 51.5407L45.288 52.949L45.3443 55.588L45.3877 56.8143L45.5003 59.0677L45.5653 60.086L47.446 59.1413L49.5563 58.032L51.8747 56.758L53.1053 56.056L55.493 54.6433L57.6337 53.3173L59.523 52.104L60.3723 51.5407L58.6087 50.3707L56.5893 49.0967C55.4403 48.3853 54.2803 47.6919 53.1097 47.0167L51.8833 46.319L49.5693 45.045L47.4547 43.9357Z" fill="black" fill-opacity="0.5"/>
</svg>
