<svg width="104" height="104" viewBox="0 0 104 104" fill="none" xmlns="http://www.w3.org/2000/svg">
<path d="M82.3337 86.6667H21.667C14.4997 86.6667 8.66699 80.834 8.66699 73.6667V39C8.66699 31.8327 14.4997 26 21.667 26H28.5397L32.873 21.6667C35.382 19.1577 39.789 17.3334 43.3337 17.3334H60.667C64.2117 17.3334 68.6187 19.1577 71.1277 21.6667L75.461 26H82.3337C89.501 26 95.3336 31.8327 95.3336 39V73.6667C95.3336 80.834 89.501 86.6667 82.3337 86.6667ZM21.667 34.6667C20.5177 34.6667 19.4155 35.1233 18.6029 35.9359C17.7902 36.7486 17.3337 37.8508 17.3337 39V73.6667C17.3337 74.816 17.7902 75.9182 18.6029 76.7308C19.4155 77.5435 20.5177 78 21.667 78H82.3337C83.4829 78 84.5851 77.5435 85.3978 76.7308C86.2104 75.9182 86.667 74.816 86.667 73.6667V39C86.667 37.8508 86.2104 36.7486 85.3978 35.9359C84.5851 35.1233 83.4829 34.6667 82.3337 34.6667H73.667C72.5178 34.6665 71.4158 34.2098 70.6033 33.397L65.0003 27.794C64.1293 26.923 61.902 26 60.667 26H43.3337C42.0987 26 39.8713 26.923 39.0003 27.794L33.3973 33.397C32.5849 34.2098 31.4828 34.6665 30.3337 34.6667H21.667ZM52.0003 43.3334C57.976 43.3334 62.8337 48.191 62.8337 54.1667C62.8337 60.1424 57.976 65 52.0003 65C46.0247 65 41.167 60.1424 41.167 54.1667C41.167 48.191 46.0247 43.3334 52.0003 43.3334ZM52.0003 39C47.9779 39 44.1202 40.598 41.2759 43.4423C38.4316 46.2866 36.8337 50.1443 36.8337 54.1667C36.8337 58.1892 38.4316 62.0469 41.2759 64.8912C44.1202 67.7355 47.9779 69.3334 52.0003 69.3334C56.0228 69.3334 59.8805 67.7355 62.7248 64.8912C65.5691 62.0469 67.167 58.1892 67.167 54.1667C67.167 50.1443 65.5691 46.2866 62.7248 43.4423C59.8805 40.598 56.0228 39 52.0003 39ZM78.0003 37.6957C77.2605 37.6957 76.528 37.8414 75.8445 38.1245C75.1611 38.4076 74.5401 38.8226 74.017 39.3457C73.4939 39.8688 73.0789 40.4898 72.7958 41.1733C72.5127 41.8567 72.367 42.5893 72.367 43.329C72.367 44.0688 72.5127 44.8014 72.7958 45.4848C73.0789 46.1683 73.4939 46.7893 74.017 47.3124C74.5401 47.8355 75.1611 48.2505 75.8445 48.5336C76.528 48.8167 77.2605 48.9624 78.0003 48.9624C79.4944 48.9624 80.9272 48.3689 81.9837 47.3124C83.0401 46.256 83.6337 44.8231 83.6337 43.329C83.6337 41.835 83.0401 40.4021 81.9837 39.3457C80.9272 38.2892 79.4944 37.6957 78.0003 37.6957Z" fill="black" fill-opacity="0.5"/>
</svg>
