<svg width="140" height="138" viewBox="0 0 140 138" fill="none" xmlns="http://www.w3.org/2000/svg">
<circle cx="64" cy="64" r="64" fill="white"/>
<circle cx="64" cy="64" r="26" fill="url(#paint0_linear_1630_6946)" stroke="#7B00C3" stroke-width="4"/>
<path d="M106 138C99.7516 138 94.6667 132.915 94.6667 126.667L94.8669 115.133L83.4013 115.333C77.0849 115.333 72 110.248 72 104C72 97.7516 77.0849 92.6667 83.3333 92.6667L94.8669 92.4627L94.6667 81.4013C94.6667 75.0849 99.7516 70 106 70C112.248 70 117.333 75.0849 117.333 81.3333L117.541 92.4627L128.735 92.6667C134.915 92.6667 140 97.7516 140 104C140 110.248 134.915 115.333 128.667 115.333L117.541 115.133L117.333 126.735C117.333 132.915 112.248 138 106 138ZM102.222 107.778V126.735C102.222 128.748 103.918 130.444 106 130.444C108.082 130.444 109.778 128.748 109.778 126.667V107.778H128.735C130.748 107.778 132.444 106.082 132.444 104C132.444 101.918 130.748 100.222 128.667 100.222H109.778V81.3333C109.778 79.1838 108.082 77.5556 106 77.5556C103.918 77.5556 102.222 79.2518 102.222 81.3333V100.222H83.3333C81.1838 100.222 79.5556 101.918 79.5556 104C79.5556 106.082 81.2518 107.778 83.3333 107.778H102.222Z" fill="url(#paint1_linear_1630_6946)"/>
<path d="M102.222 107.778V126.735C102.222 128.748 103.918 130.444 106 130.444C108.082 130.444 109.778 128.748 109.778 126.667V107.778H128.735C130.748 107.778 132.444 106.082 132.444 104C132.444 101.918 130.748 100.222 128.667 100.222H109.778V81.3333C109.778 79.1838 108.082 77.5556 106 77.5556C103.918 77.5556 102.222 79.2518 102.222 81.3333V100.222H83.3333C81.1838 100.222 79.5556 101.918 79.5556 104C79.5556 106.082 81.2518 107.778 83.3333 107.778H102.222Z" fill="url(#paint2_linear_1630_6946)"/>
<defs>
<linearGradient id="paint0_linear_1630_6946" x1="43.8186" y1="36" x2="84.1814" y2="92" gradientUnits="userSpaceOnUse">
<stop stop-color="#EED636"/>
<stop offset="1" stop-color="#8A7C00"/>
</linearGradient>
<linearGradient id="paint1_linear_1630_6946" x1="93.4607" y1="70" x2="118.539" y2="138" gradientUnits="userSpaceOnUse">
<stop stop-color="#7B00C3"/>
<stop offset="1" stop-color="#E6DAED"/>
</linearGradient>
<linearGradient id="paint2_linear_1630_6946" x1="93.4607" y1="70" x2="118.539" y2="138" gradientUnits="userSpaceOnUse">
<stop stop-color="#7B00C3"/>
<stop offset="1" stop-color="#E6DAED"/>
</linearGradient>
</defs>
</svg>
