<svg width="176" height="130" viewBox="0 0 176 130" fill="none" xmlns="http://www.w3.org/2000/svg">
<path d="M167.821 24.3157C166.026 24.1084 164.21 24.4304 162.596 25.242L120.421 46.3157V83.3684L162.596 104.442C164.007 105.147 165.574 105.48 167.149 105.41C168.725 105.34 170.256 104.869 171.598 104.041C172.94 103.214 174.049 102.057 174.82 100.682C175.59 99.3058 175.996 97.7562 176 96.1794V33.5048C175.998 31.2375 175.164 29.0499 173.656 27.3564C172.149 25.6628 170.073 24.581 167.821 24.3157Z" fill="white"/>
<path d="M27.7897 0C12.5517 0 0 12.5516 0 27.7895V101.895C0 117.133 12.5517 129.684 27.7897 129.684H101.896C117.134 129.684 129.685 117.133 129.685 101.895V27.7895C129.685 12.5516 117.134 0 101.896 0H27.7897Z" fill="white"/>
</svg>
