<svg width="36" height="36" viewBox="0 0 36 36" fill="none" xmlns="http://www.w3.org/2000/svg">
<rect width="36" height="36" rx="4" fill="#005770"/>
<path d="M18.5402 10.3507L20.335 14.6379C20.4723 14.9661 20.7697 15.1909 21.111 15.223L25.4833 15.6336C25.978 15.709 26.1753 16.3444 25.8166 16.7103L22.5231 19.608C22.2564 19.8426 22.1351 20.2113 22.2084 20.5674L23.1658 25.261C23.2498 25.7763 22.7338 26.1701 22.2911 25.9257L18.4749 23.5852C18.1816 23.405 17.8189 23.405 17.5255 23.5852L13.7093 25.9243C13.268 26.1673 12.7506 25.7749 12.8346 25.2596L13.792 20.566C13.864 20.2099 13.744 19.8412 13.4773 19.6066L10.1825 16.7117C9.82511 16.3472 10.0225 15.7104 10.5158 15.635L14.888 15.2244C15.2294 15.1923 15.5267 14.9675 15.6641 14.6393L17.4588 10.3521C17.6815 9.88287 18.3189 9.88287 18.5402 10.3507Z" fill="white"/>
</svg>
