<svg width="16" height="12" viewBox="0 0 16 12" fill="none" xmlns="http://www.w3.org/2000/svg">
<g clip-path="url(#clip0_989_5065)">
<path d="M15.0264 2.19541C14.9472 1.87183 14.7859 1.57535 14.5588 1.33591C14.3317 1.09648 14.0469 0.922582 13.7331 0.831774C12.5864 0.54541 7.99973 0.54541 7.99973 0.54541C7.99973 0.54541 3.41306 0.54541 2.2664 0.859047C1.95256 0.949854 1.66771 1.12376 1.44063 1.36319C1.21354 1.60262 1.05226 1.8991 0.973063 2.22268C0.763206 3.41283 0.660554 4.62017 0.666397 5.8295C0.658916 7.04794 0.761575 8.26448 0.973063 9.46359C1.06037 9.77712 1.22527 10.0623 1.45183 10.2916C1.67838 10.521 1.95894 10.6866 2.2664 10.7727C3.41306 11.0863 7.99973 11.0863 7.99973 11.0863C7.99973 11.0863 12.5864 11.0863 13.7331 10.7727C14.0469 10.6819 14.3317 10.508 14.5588 10.2685C14.7859 10.0291 14.9472 9.73263 15.0264 9.40905C15.2346 8.22786 15.3373 7.02973 15.3331 5.8295C15.3405 4.61106 15.2379 3.39452 15.0264 2.19541Z" fill="black" fill-opacity="0.5"/>
<path d="M6.5 8.05943L10.3333 5.82989L6.5 3.60034V8.05943Z" fill="#EEEEEE" stroke="white" stroke-opacity="0.133333" stroke-width="2" stroke-linecap="round" stroke-linejoin="round"/>
</g>
<defs>
<clipPath id="clip0_989_5065">
<rect width="16" height="12" fill="white"/>
</clipPath>
</defs>
</svg>
